<svg xmlns="http://www.w3.org/2000/svg" viewBox="0 0 187.69 84.46"><defs><style>.cls-1{fill:#221f20;fill-rule:evenodd;}</style></defs><g id="Layer_2" data-name="Layer 2"><g id="Layer_1-2" data-name="Layer 1"><path class="cls-1" d="M13.21,75.15h14.4a18.57,18.57,0,1,1,36.1-8.7V7.91A7.93,7.93,0,0,0,55.8,0H23.48c-2,0-4.11,1.85-6.13,4.75h6.36c-1.11.57-3,3.39-3.53,4.34a67.24,67.24,0,0,0-5,10.59,111.48,111.48,0,0,0-3.79,11.65l-.05.14H6.47A33.68,33.68,0,0,0,5.31,38.1V55.31h13a2.08,2.08,0,1,1,0,4.16H3.17A3.18,3.18,0,0,0,0,62.64V72a3.17,3.17,0,0,0,3.17,3.17ZM67.87,51.83H187.69v-31a2.09,2.09,0,0,0-2.08-2.09H72V14.18H67.87V51.83ZM89.09,22.92v4.17h16.22V22.92Zm0,8.33v4.17h16.22V31.25Zm0,8.34v4h16.22v-4Zm-4.17,4v-4H72v4Zm0-8.14V31.25H72v4.17Zm0-8.33V22.92H72v4.17Zm24.55-4.17v4.17H125.7V22.92Zm0,8.33v4.17H125.7V31.25Zm0,8.34v4H125.7v-4Zm20.4-16.67v4.17h16.22V22.92Zm0,8.33v4.17h16.22V31.25Zm0,8.34v4h16.22v-4Zm20.39-16.67v4.17h16.23V22.92Zm0,8.33v4.17h16.23V31.25Zm0,8.34v4h16.23v-4Zm20.39-16.67v4.17h12.88V22.92Zm0,8.33v4.17h12.88V31.25Zm0,8.34v4h12.88v-4ZM149.85,74a3.41,3.41,0,1,1,3.4-3.4,3.4,3.4,0,0,1-3.4,3.4Zm0,10.42a13.82,13.82,0,1,1,13.82-13.82,13.82,13.82,0,0,1-13.82,13.82Zm0-6a7.84,7.84,0,1,1,7.84-7.84,7.84,7.84,0,0,1-7.84,7.84Zm-82-19h68.78a17.29,17.29,0,0,0-3.49,15.68H99.25A3.48,3.48,0,0,1,95.83,78H71.35a3.5,3.5,0,0,1-3.43-2.89h0V59.47Zm95.17,0h13.52A3.48,3.48,0,0,1,180,62.94v8.74a3.48,3.48,0,0,1-3.47,3.47h-10A17.26,17.26,0,0,0,163,59.47ZM45.62,74a3.41,3.41,0,1,1,3.4-3.4,3.4,3.4,0,0,1-3.4,3.4Zm0,10.42A13.82,13.82,0,1,1,59.44,70.64,13.82,13.82,0,0,1,45.62,84.46Zm0-6a7.84,7.84,0,1,1,7.84-7.84,7.84,7.84,0,0,1-7.84,7.84ZM9.05,40.56h4a.7.7,0,0,1,.69.7v9.91a.69.69,0,0,1-.69.69h-4ZM54.22,26.48V7.91a3.19,3.19,0,0,0-3.17-3.16H31c-4.25,0-9.75,17.07-9.75,23.43,0,9.39-.38,10.7,2.46,10.7H32.2c2.31,0,5.53-7.38,8.5-7.38,2.82,0,7.18-.05,9.61-.05,3.06,0,3.91-1.07,3.91-5Z"/></g></g></svg>