<svg height='100px' width='100px'  fill="#000000" xmlns="http://www.w3.org/2000/svg" xmlns:xlink="http://www.w3.org/1999/xlink" version="1.1" x="0px" y="0px" viewBox="0 0 64 64" style="enable-background:new 0 0 64 64;" xml:space="preserve"><path d="M29,10h-1v1l-7.16998,7.16998c-0.53003,0.53003-0.83002,1.25-0.83002,2c0,0.78003,0.32001,1.48999,0.83002,2  S22.04999,23,22.83002,23c0.75,0,1.46997-0.29999,2-0.83002c-0.53003,0.53003-0.83002,1.25-0.83002,2  c0,0.78003,0.32001,1.48999,0.83002,2S26.04999,27,26.83002,27c0.75,0,1.46997-0.29999,2-0.83002L30,25v2h1v15h2V27h1v-3v-2h9l3,2  h10l5-3h1V2H37L29,10z M30,16h-1c-1.65686,0-3,1.34314-3,3s1.34314,3,3,3h1v2h-1c-2.76141,0-5-2.23859-5-5s2.23859-5,5-5h1V16z   M40.58594,13c0.3905-0.3905,1.02356-0.3905,1.41406,0c0.3905,0.39044,0.3905,1.02356,0,1.41406L40.41406,16H34v-2h5.58594  L40.58594,13z M38,9c0.3905,0.39044,0.3905,1.02356,0,1.41406l-2,2V11v-1h-0.41406l1-1C36.97644,8.6095,37.6095,8.6095,38,9z"></path><path d="M31,51v-9H12V32h1V19l2-1v-3H7v3l2,1v13h1v10H2v20h60V42H33v9H31z M31,55h-1c-1.6543,0-3-1.3457-3-3v-1h2v1  c0,0.55127,0.44873,1,1,1h1V55z"></path></svg>