<svg xmlns="http://www.w3.org/2000/svg" viewBox="0 0 1557.06 799.82"><defs><style>.cls-1{fill:#f2f2f2;}</style></defs><g id="Layer_2" data-name="Layer 2"><g id="Layer_1-2" data-name="Layer 1"><rect class="cls-1" width="1554.6" height="799.82"/><rect x="1556.84" y="162.76" width="0.22" height="0.22"/><rect x="399.48" y="35.55" width="1.39" height="1.39"/><rect x="414.82" y="34.83" width="2.85" height="2.84"/><rect x="429.6" y="33.54" width="5.41" height="5.42"/><rect x="445.21" y="33.1" width="6.31" height="6.29"/><rect x="461.15" y="32.97" width="6.53" height="6.55"/><rect x="478.69" y="34.45" width="3.58" height="3.59"/><rect x="495.22" y="34.93" width="2.63" height="2.64"/><rect x="509.36" y="33.03" width="6.43" height="6.43"/><rect x="525.41" y="33.01" width="6.48" height="6.49"/><rect x="541.43" y="32.97" width="6.55" height="6.55"/><rect x="557.48" y="32.97" width="6.57" height="6.55"/><rect x="573.55" y="32.97" width="6.55" height="6.55"/><rect x="589.65" y="33.01" width="6.48" height="6.49"/><rect x="605.74" y="33.03" width="6.43" height="6.43"/><rect x="622.61" y="33.86" width="4.77" height="4.78"/><rect x="640.56" y="35.75" width="1" height="1"/><rect x="753.44" y="36.22" width="0.05" height="0.06"/><rect x="833.48" y="35.96" width="0.56" height="0.57"/><rect x="849.13" y="35.55" width="1.39" height="1.39"/><rect x="865.57" y="35.93" width="0.63" height="0.63"/><rect x="961.94" y="35.96" width="0.56" height="0.57"/><rect x="399.48" y="51.61" width="1.39" height="1.39"/><rect x="414.82" y="50.89" width="2.85" height="2.84"/><rect x="429.6" y="49.6" width="5.41" height="5.42"/><rect x="445.21" y="49.16" width="6.31" height="6.3"/><rect x="461.15" y="49.03" width="6.53" height="6.55"/><rect x="478.69" y="50.51" width="3.58" height="3.59"/><rect x="495.22" y="50.99" width="2.63" height="2.64"/><rect x="509.36" y="49.09" width="6.43" height="6.43"/><rect x="525.41" y="49.06" width="6.48" height="6.49"/><rect x="541.43" y="49.03" width="6.55" height="6.55"/><rect x="557.48" y="49.03" width="6.57" height="6.55"/><rect x="573.55" y="49.03" width="6.55" height="6.55"/><rect x="589.65" y="49.06" width="6.48" height="6.49"/><rect x="605.74" y="49.09" width="6.43" height="6.43"/><rect x="622.61" y="49.92" width="4.77" height="4.78"/><rect x="640.56" y="51.8" width="1" height="1"/><rect x="753.44" y="52.28" width="0.05" height="0.06"/><rect x="833.48" y="52.02" width="0.56" height="0.57"/><rect x="849.13" y="51.61" width="1.39" height="1.39"/><rect x="865.57" y="51.99" width="0.63" height="0.63"/><rect x="961.94" y="52.02" width="0.56" height="0.57"/><rect x="287.67" y="68.27" width="0.2" height="0.18"/><rect x="302.33" y="66.85" width="3.02" height="3.02"/><rect x="319.78" y="68.27" width="0.19" height="0.18"/><rect x="335.9" y="68.34" width="0.07" height="0.06"/><rect x="351.36" y="67.74" width="1.27" height="1.25"/><rect x="367.65" y="67.96" width="0.83" height="0.82"/><rect x="383.02" y="67.26" width="2.21" height="2.2"/><rect x="399.33" y="67.51" width="1.7" height="1.7"/><rect x="414.72" y="66.85" width="3.02" height="3.02"/><rect x="431.16" y="67.23" width="2.26" height="2.26"/><rect x="461.55" y="65.5" width="5.74" height="5.73"/><rect x="477.27" y="65.15" width="6.41" height="6.43"/><rect x="493.25" y="65.09" width="6.55" height="6.55"/><rect x="509.32" y="65.09" width="6.55" height="6.55"/><rect x="525.39" y="65.09" width="6.52" height="6.55"/><rect x="541.43" y="65.09" width="6.55" height="6.55"/><rect x="557.48" y="65.09" width="6.57" height="6.55"/><rect x="573.55" y="65.09" width="6.55" height="6.55"/><rect x="589.62" y="65.09" width="6.53" height="6.55"/><rect x="605.74" y="65.15" width="6.43" height="6.43"/><rect x="737.08" y="68.02" width="0.68" height="0.69"/><rect x="881.69" y="68.1" width="0.51" height="0.51"/><rect x="896.44" y="66.82" width="3.09" height="3.09"/><rect x="994.28" y="68.3" width="0.12" height="0.12"/><rect x="1007.21" y="65.15" width="6.41" height="6.43"/><rect x="1025.27" y="67.17" width="2.39" height="2.4"/><rect x="1041.95" y="67.8" width="1.14" height="1.13"/><rect x="1138.84" y="68.34" width="0.07" height="0.06"/><rect x="268.75" y="81.46" width="5.92" height="5.92"/><rect x="285.84" y="82.5" width="3.85" height="3.85"/><rect x="319.86" y="84.39" width="0.07" height="0.06"/><rect x="351.1" y="83.51" width="1.83" height="1.83"/><rect x="366.58" y="82.94" width="2.97" height="2.96"/><rect x="383.97" y="84.26" width="0.32" height="0.32"/><rect x="399.77" y="84.02" width="0.83" height="0.82"/><rect x="415.89" y="84.08" width="0.71" height="0.7"/><rect x="464.22" y="84.24" width="0.39" height="0.38"/><rect x="493.25" y="81.14" width="6.55" height="6.55"/><rect x="509.32" y="81.14" width="6.55" height="6.55"/><rect x="525.39" y="81.14" width="6.52" height="6.55"/><rect x="541.43" y="81.14" width="6.55" height="6.55"/><rect x="557.48" y="81.14" width="6.57" height="6.55"/><rect x="573.55" y="81.14" width="6.55" height="6.55"/><rect x="589.67" y="81.2" width="6.43" height="6.43"/><rect x="606.76" y="82.25" width="4.36" height="4.35"/><rect x="862.67" y="81.2" width="6.43" height="6.43"/><rect x="914.02" y="84.39" width="0.07" height="0.06"/><rect x="961.77" y="83.96" width="0.93" height="0.94"/><rect x="975.02" y="81.14" width="6.55" height="6.55"/><rect x="991.09" y="81.14" width="6.53" height="6.55"/><rect x="1007.13" y="81.14" width="6.55" height="6.55"/><rect x="1023.18" y="81.14" width="6.55" height="6.55"/><rect x="1041.29" y="83.19" width="2.46" height="2.46"/><rect x="1058.17" y="84.02" width="0.83" height="0.82"/><rect x="1074.41" y="84.2" width="0.44" height="0.44"/><rect x="1090.51" y="84.24" width="0.39" height="0.38"/><rect x="1106.6" y="84.26" width="0.32" height="0.32"/><rect x="1154.49" y="83.98" width="0.88" height="0.89"/><rect x="109.8" y="99.16" width="2.65" height="2.64"/><rect x="124.04" y="97.34" width="6.28" height="6.29"/><rect x="139.97" y="97.2" width="6.55" height="6.55"/><rect x="156.84" y="98.03" width="4.92" height="4.91"/><rect x="174.25" y="99.38" width="2.22" height="2.2"/><rect x="207.44" y="100.45" width="0.07" height="0.06"/><rect x="222.56" y="99.5" width="1.95" height="1.95"/><rect x="238.31" y="99.19" width="2.58" height="2.58"/><rect x="269.24" y="97.99" width="4.97" height="4.98"/><rect x="284.55" y="97.26" width="6.43" height="6.43"/><rect x="300.6" y="97.24" width="6.48" height="6.49"/><rect x="318.15" y="98.75" width="3.46" height="3.47"/><rect x="335.86" y="100.39" width="0.19" height="0.18"/><rect x="348.76" y="97.24" width="6.48" height="6.49"/><rect x="381.68" y="98.03" width="4.89" height="4.91"/><rect x="398.46" y="98.75" width="3.46" height="3.47"/><rect x="412.97" y="97.2" width="6.55" height="6.55"/><rect x="429.09" y="97.26" width="6.43" height="6.43"/><rect x="493.39" y="97.34" width="6.28" height="6.29"/><rect x="509.32" y="97.2" width="6.55" height="6.55"/><rect x="525.39" y="97.2" width="6.52" height="6.55"/><rect x="541.43" y="97.2" width="6.55" height="6.55"/><rect x="557.48" y="97.2" width="6.57" height="6.55"/><rect x="573.55" y="97.2" width="6.55" height="6.55"/><rect x="590.93" y="98.53" width="3.9" height="3.91"/><rect x="752.3" y="99.32" width="2.34" height="2.32"/><rect x="766.32" y="97.26" width="6.43" height="6.43"/><rect x="785.02" y="99.92" width="1.14" height="1.13"/><rect x="897.71" y="100.2" width="0.56" height="0.57"/><rect x="912.44" y="98.87" width="3.21" height="3.21"/><rect x="928.61" y="98.97" width="3.02" height="3.02"/><rect x="942.9" y="97.2" width="6.55" height="6.55"/><rect x="958.95" y="97.2" width="6.55" height="6.55"/><rect x="975.02" y="97.2" width="6.55" height="6.55"/><rect x="991.09" y="97.2" width="6.53" height="6.55"/><rect x="1007.13" y="97.2" width="6.55" height="6.55"/><rect x="1023.18" y="97.2" width="6.55" height="6.55"/><rect x="1039.25" y="97.2" width="6.55" height="6.55"/><rect x="1055.32" y="97.2" width="6.52" height="6.55"/><rect x="1071.37" y="97.2" width="6.55" height="6.55"/><rect x="1087.46" y="97.24" width="6.48" height="6.49"/><rect x="1103.48" y="97.2" width="6.55" height="6.55"/><rect x="1119.55" y="97.2" width="6.53" height="6.55"/><rect x="1135.6" y="97.2" width="6.55" height="6.55"/><rect x="1151.67" y="97.2" width="6.55" height="6.55"/><rect x="1167.71" y="97.2" width="6.55" height="6.55"/><rect x="1183.79" y="97.2" width="6.52" height="6.55"/><rect x="1199.83" y="97.2" width="6.55" height="6.55"/><rect x="1215.9" y="97.2" width="6.55" height="6.55"/><rect x="1234.07" y="99.32" width="2.31" height="2.32"/><rect x="1251.13" y="100.32" width="0.32" height="0.32"/><rect x="1267.03" y="100.16" width="0.63" height="0.63"/><rect x="1282.74" y="99.82" width="1.32" height="1.33"/><rect x="1299.35" y="100.36" width="0.24" height="0.25"/><rect x="77.41" y="114.93" width="3.21" height="3.21"/><rect x="91.83" y="113.3" width="6.48" height="6.49"/><rect x="107.85" y="113.26" width="6.55" height="6.55"/><rect x="123.92" y="113.26" width="6.53" height="6.55"/><rect x="139.97" y="113.26" width="6.55" height="6.55"/><rect x="156.04" y="113.26" width="6.55" height="6.55"/><rect x="172.08" y="113.26" width="6.55" height="6.55"/><rect x="188.15" y="113.26" width="6.55" height="6.55"/><rect x="204.2" y="113.26" width="6.55" height="6.55"/><rect x="220.32" y="113.32" width="6.43" height="6.43"/><rect x="236.41" y="113.36" width="6.36" height="6.35"/><rect x="252.39" y="113.26" width="6.55" height="6.55"/><rect x="268.43" y="113.26" width="6.55" height="6.55"/><rect x="284.55" y="113.32" width="6.43" height="6.43"/><rect x="300.55" y="113.26" width="6.55" height="6.55"/><rect x="316.62" y="113.26" width="6.55" height="6.55"/><rect x="332.66" y="113.26" width="6.55" height="6.55"/><rect x="348.98" y="113.52" width="6.04" height="6.05"/><rect x="366.68" y="115.16" width="2.78" height="2.77"/><rect x="413.02" y="113.32" width="6.43" height="6.43"/><rect x="430.13" y="114.37" width="4.33" height="4.35"/><rect x="445.6" y="113.77" width="5.53" height="5.54"/><rect x="479.78" y="115.84" width="1.39" height="1.39"/><rect x="493.25" y="113.26" width="6.55" height="6.55"/><rect x="509.32" y="113.26" width="6.55" height="6.55"/><rect x="525.39" y="113.26" width="6.52" height="6.55"/><rect x="542.82" y="114.65" width="3.77" height="3.77"/><rect x="592.42" y="116.07" width="0.92" height="0.94"/><rect x="608.56" y="116.16" width="0.75" height="0.75"/><rect x="734.16" y="113.3" width="6.5" height="6.49"/><rect x="750.2" y="113.26" width="6.55" height="6.55"/><rect x="766.25" y="113.26" width="6.55" height="6.55"/><rect x="782.34" y="113.3" width="6.5" height="6.49"/><rect x="799.41" y="114.31" width="4.48" height="4.47"/><rect x="815.97" y="114.81" width="3.46" height="3.47"/><rect x="832.72" y="115.5" width="2.09" height="2.08"/><rect x="846.55" y="113.26" width="6.55" height="6.55"/><rect x="862.6" y="113.26" width="6.55" height="6.55"/><rect x="878.67" y="113.26" width="6.55" height="6.55"/><rect x="894.76" y="113.3" width="6.48" height="6.49"/><rect x="910.79" y="113.26" width="6.55" height="6.55"/><rect x="926.9" y="113.32" width="6.43" height="6.43"/><rect x="942.92" y="113.3" width="6.5" height="6.49"/><rect x="958.95" y="113.26" width="6.55" height="6.55"/><rect x="975.02" y="113.26" width="6.55" height="6.55"/><rect x="991.09" y="113.26" width="6.53" height="6.55"/><rect x="1007.13" y="113.26" width="6.55" height="6.55"/><rect x="1023.18" y="113.26" width="6.55" height="6.55"/><rect x="1039.25" y="113.26" width="6.55" height="6.55"/><rect x="1055.32" y="113.26" width="6.52" height="6.55"/><rect x="1071.37" y="113.26" width="6.55" height="6.55"/><rect x="1087.41" y="113.26" width="6.57" height="6.55"/><rect x="1103.48" y="113.26" width="6.55" height="6.55"/><rect x="1119.55" y="113.26" width="6.53" height="6.55"/><rect x="1135.6" y="113.26" width="6.55" height="6.55"/><rect x="1151.67" y="113.26" width="6.55" height="6.55"/><rect x="1167.71" y="113.26" width="6.55" height="6.55"/><rect x="1183.79" y="113.26" width="6.52" height="6.55"/><rect x="1199.83" y="113.26" width="6.55" height="6.55"/><rect x="1215.9" y="113.26" width="6.55" height="6.55"/><rect x="1231.95" y="113.26" width="6.55" height="6.55"/><rect x="1248.02" y="113.26" width="6.55" height="6.55"/><rect x="1264.06" y="113.26" width="6.55" height="6.55"/><rect x="1280.13" y="113.26" width="6.55" height="6.55"/><rect x="1296.18" y="113.26" width="6.55" height="6.55"/><rect x="1312.25" y="113.26" width="6.55" height="6.55"/><rect x="1328.32" y="113.3" width="6.5" height="6.49"/><rect x="1344.46" y="113.36" width="6.36" height="6.35"/><rect x="1362.02" y="114.87" width="3.34" height="3.35"/><rect x="46.64" y="132.35" width="0.51" height="0.5"/><rect x="59.71" y="129.36" width="6.48" height="6.49"/><rect x="75.73" y="129.32" width="6.55" height="6.55"/><rect x="91.8" y="129.32" width="6.55" height="6.55"/><rect x="107.85" y="129.32" width="6.55" height="6.55"/><rect x="123.92" y="129.32" width="6.53" height="6.55"/><rect x="139.99" y="129.36" width="6.5" height="6.49"/><rect x="156.04" y="129.32" width="6.55" height="6.55"/><rect x="172.08" y="129.32" width="6.55" height="6.55"/><rect x="188.15" y="129.32" width="6.55" height="6.55"/><rect x="204.2" y="129.32" width="6.55" height="6.55"/><rect x="220.32" y="129.38" width="6.43" height="6.43"/><rect x="236.39" y="129.38" width="6.43" height="6.43"/><rect x="252.53" y="129.48" width="6.23" height="6.23"/><rect x="268.43" y="129.32" width="6.55" height="6.55"/><rect x="284.5" y="129.32" width="6.55" height="6.55"/><rect x="300.55" y="129.32" width="6.55" height="6.55"/><rect x="316.64" y="129.36" width="6.5" height="6.49"/><rect x="367.99" y="132.53" width="0.12" height="0.13"/><rect x="383.65" y="132.13" width="0.95" height="0.94"/><rect x="413.31" y="129.67" width="5.87" height="5.85"/><rect x="431.55" y="131.84" width="1.51" height="1.51"/><rect x="493.25" y="129.32" width="6.55" height="6.55"/><rect x="509.34" y="129.36" width="6.5" height="6.49"/><rect x="703.04" y="130.33" width="4.53" height="4.53"/><rect x="718.08" y="129.32" width="6.55" height="6.55"/><rect x="734.13" y="129.32" width="6.55" height="6.55"/><rect x="766.25" y="129.32" width="6.55" height="6.55"/><rect x="782.32" y="129.32" width="6.55" height="6.55"/><rect x="798.37" y="129.32" width="6.55" height="6.55"/><rect x="814.44" y="129.32" width="6.55" height="6.55"/><rect x="830.48" y="129.32" width="6.55" height="6.55"/><rect x="846.55" y="129.32" width="6.55" height="6.55"/><rect x="862.6" y="129.32" width="6.55" height="6.55"/><rect x="878.67" y="129.32" width="6.55" height="6.55"/><rect x="894.71" y="129.32" width="6.55" height="6.55"/><rect x="910.79" y="129.32" width="6.55" height="6.55"/><rect x="926.83" y="129.32" width="6.55" height="6.55"/><rect x="942.9" y="129.32" width="6.55" height="6.55"/><rect x="958.95" y="129.32" width="6.55" height="6.55"/><rect x="975.02" y="129.32" width="6.55" height="6.55"/><rect x="991.09" y="129.32" width="6.53" height="6.55"/><rect x="1007.13" y="129.32" width="6.55" height="6.55"/><rect x="1023.18" y="129.32" width="6.55" height="6.55"/><rect x="1039.25" y="129.32" width="6.55" height="6.55"/><rect x="1055.32" y="129.32" width="6.52" height="6.55"/><rect x="1071.37" y="129.32" width="6.55" height="6.55"/><rect x="1087.41" y="129.32" width="6.57" height="6.55"/><rect x="1103.48" y="129.32" width="6.55" height="6.55"/><rect x="1119.55" y="129.32" width="6.53" height="6.55"/><rect x="1135.6" y="129.32" width="6.55" height="6.55"/><rect x="1151.67" y="129.32" width="6.55" height="6.55"/><rect x="1167.71" y="129.32" width="6.55" height="6.55"/><rect x="1183.79" y="129.32" width="6.52" height="6.55"/><rect x="1199.83" y="129.32" width="6.55" height="6.55"/><rect x="1215.9" y="129.32" width="6.55" height="6.55"/><rect x="1231.95" y="129.32" width="6.55" height="6.55"/><rect x="1248.02" y="129.32" width="6.55" height="6.55"/><rect x="1264.06" y="129.32" width="6.55" height="6.55"/><rect x="1280.13" y="129.32" width="6.55" height="6.55"/><rect x="1296.94" y="130.09" width="5.04" height="5.03"/><rect x="1312.25" y="129.32" width="6.55" height="6.55"/><rect x="1328.3" y="129.32" width="6.55" height="6.55"/><rect x="1345.56" y="130.52" width="4.16" height="4.15"/><rect x="43.64" y="145.41" width="6.5" height="6.49"/><rect x="59.69" y="145.38" width="6.52" height="6.55"/><rect x="75.81" y="145.45" width="6.43" height="6.42"/><rect x="93.66" y="147.24" width="2.82" height="2.84"/><rect x="126.94" y="148.41" width="0.49" height="0.5"/><rect x="140.04" y="145.45" width="6.43" height="6.42"/><rect x="156.04" y="145.38" width="6.55" height="6.55"/><rect x="172.08" y="145.38" width="6.55" height="6.55"/><rect x="188.15" y="145.38" width="6.55" height="6.55"/><rect x="204.22" y="145.41" width="6.5" height="6.49"/><rect x="220.27" y="145.38" width="6.55" height="6.55"/><rect x="236.32" y="145.38" width="6.55" height="6.55"/><rect x="252.39" y="145.38" width="6.55" height="6.55"/><rect x="268.43" y="145.38" width="6.55" height="6.55"/><rect x="284.5" y="145.38" width="6.55" height="6.55"/><rect x="302.01" y="146.82" width="3.65" height="3.65"/><rect x="367.95" y="148.53" width="0.24" height="0.26"/><rect x="380.85" y="145.38" width="6.55" height="6.55"/><rect x="398.14" y="146.6" width="4.09" height="4.1"/><rect x="414.45" y="146.86" width="3.58" height="3.59"/><rect x="702.02" y="145.38" width="6.55" height="6.55"/><rect x="719.3" y="146.6" width="4.09" height="4.1"/><rect x="734.13" y="145.38" width="6.55" height="6.55"/><rect x="768.29" y="147.44" width="2.46" height="2.45"/><rect x="782.54" y="145.6" width="6.11" height="6.11"/><rect x="798.37" y="145.38" width="6.55" height="6.55"/><rect x="814.44" y="145.38" width="6.55" height="6.55"/><rect x="830.48" y="145.38" width="6.55" height="6.55"/><rect x="846.55" y="145.38" width="6.55" height="6.55"/><rect x="862.6" y="145.38" width="6.55" height="6.55"/><rect x="878.67" y="145.38" width="6.55" height="6.55"/><rect x="894.71" y="145.38" width="6.55" height="6.55"/><rect x="910.79" y="145.38" width="6.55" height="6.55"/><rect x="926.83" y="145.38" width="6.55" height="6.55"/><rect x="942.9" y="145.38" width="6.55" height="6.55"/><rect x="958.95" y="145.38" width="6.55" height="6.55"/><rect x="975.02" y="145.38" width="6.55" height="6.55"/><rect x="991.09" y="145.38" width="6.53" height="6.55"/><rect x="1007.13" y="145.38" width="6.55" height="6.55"/><rect x="1023.18" y="145.38" width="6.55" height="6.55"/><rect x="1039.25" y="145.38" width="6.55" height="6.55"/><rect x="1055.32" y="145.38" width="6.52" height="6.55"/><rect x="1071.37" y="145.38" width="6.55" height="6.55"/><rect x="1087.41" y="145.38" width="6.57" height="6.55"/><rect x="1103.48" y="145.38" width="6.55" height="6.55"/><rect x="1119.55" y="145.38" width="6.53" height="6.55"/><rect x="1135.6" y="145.38" width="6.55" height="6.55"/><rect x="1151.67" y="145.38" width="6.55" height="6.55"/><rect x="1167.71" y="145.38" width="6.55" height="6.55"/><rect x="1183.79" y="145.38" width="6.52" height="6.55"/><rect x="1199.83" y="145.38" width="6.55" height="6.55"/><rect x="1215.9" y="145.38" width="6.55" height="6.55"/><rect x="1232" y="145.41" width="6.48" height="6.49"/><rect x="1250.19" y="147.55" width="2.19" height="2.2"/><rect x="1266.52" y="147.84" width="1.63" height="1.64"/><rect x="1298.81" y="147.99" width="1.31" height="1.33"/><rect x="27.6" y="161.47" width="6.48" height="6.49"/><rect x="46.22" y="164.05" width="1.34" height="1.33"/><rect x="62" y="163.77" width="1.9" height="1.89"/><rect x="140.57" y="162.03" width="5.36" height="5.36"/><rect x="156.04" y="161.45" width="6.55" height="6.54"/><rect x="172.08" y="161.45" width="6.55" height="6.54"/><rect x="188.18" y="161.47" width="6.48" height="6.49"/><rect x="204.2" y="161.45" width="6.55" height="6.54"/><rect x="220.27" y="161.45" width="6.55" height="6.54"/><rect x="236.32" y="161.45" width="6.55" height="6.54"/><rect x="252.39" y="161.45" width="6.55" height="6.54"/><rect x="268.43" y="161.45" width="6.55" height="6.54"/><rect x="284.5" y="161.45" width="6.55" height="6.54"/><rect x="301.18" y="162.07" width="5.28" height="5.3"/><rect x="319.86" y="164.68" width="0.07" height="0.06"/><rect x="367.51" y="164.15" width="1.12" height="1.13"/><rect x="380.85" y="161.45" width="6.55" height="6.54"/><rect x="396.9" y="161.45" width="6.55" height="6.54"/><rect x="412.97" y="161.45" width="6.55" height="6.54"/><rect x="430.52" y="162.96" width="3.53" height="3.52"/><rect x="641.02" y="164.68" width="0.07" height="0.06"/><rect x="653.88" y="161.47" width="6.48" height="6.49"/><rect x="705.08" y="164.49" width="0.44" height="0.44"/><rect x="734.13" y="161.45" width="6.55" height="6.54"/><rect x="767.85" y="163.04" width="3.34" height="3.35"/><rect x="782.34" y="161.47" width="6.5" height="6.49"/><rect x="798.37" y="161.45" width="6.55" height="6.54"/><rect x="814.44" y="161.45" width="6.55" height="6.54"/><rect x="830.48" y="161.45" width="6.55" height="6.54"/><rect x="846.55" y="161.45" width="6.55" height="6.54"/><rect x="862.6" y="161.45" width="6.55" height="6.54"/><rect x="878.67" y="161.45" width="6.55" height="6.54"/><rect x="894.71" y="161.45" width="6.55" height="6.54"/><rect x="910.81" y="161.47" width="6.5" height="6.49"/><rect x="926.83" y="161.45" width="6.55" height="6.54"/><rect x="942.9" y="161.45" width="6.55" height="6.54"/><rect x="958.95" y="161.45" width="6.55" height="6.54"/><rect x="975.02" y="161.45" width="6.55" height="6.54"/><rect x="991.09" y="161.45" width="6.53" height="6.54"/><rect x="1007.13" y="161.45" width="6.55" height="6.54"/><rect x="1023.18" y="161.45" width="6.55" height="6.54"/><rect x="1039.25" y="161.45" width="6.55" height="6.54"/><rect x="1055.32" y="161.45" width="6.52" height="6.54"/><rect x="1071.37" y="161.45" width="6.55" height="6.54"/><rect x="1087.41" y="161.45" width="6.57" height="6.54"/><rect x="1103.48" y="161.45" width="6.55" height="6.54"/><rect x="1119.55" y="161.45" width="6.53" height="6.54"/><rect x="1135.6" y="161.45" width="6.55" height="6.54"/><rect x="1151.67" y="161.45" width="6.55" height="6.54"/><rect x="1167.71" y="161.45" width="6.55" height="6.54"/><rect x="1183.79" y="161.45" width="6.52" height="6.54"/><rect x="1199.83" y="161.45" width="6.55" height="6.54"/><rect x="1215.9" y="161.45" width="6.55" height="6.54"/><rect x="1296.79" y="162.03" width="5.36" height="5.36"/><rect x="1312.25" y="161.45" width="6.55" height="6.54"/><rect x="127.09" y="180.68" width="0.19" height="0.18"/><rect x="140.72" y="178.26" width="5.04" height="5.03"/><rect x="156.04" y="177.5" width="6.55" height="6.54"/><rect x="172.08" y="177.5" width="6.55" height="6.54"/><rect x="188.15" y="177.5" width="6.55" height="6.54"/><rect x="204.2" y="177.5" width="6.55" height="6.54"/><rect x="220.27" y="177.5" width="6.55" height="6.54"/><rect x="236.32" y="177.5" width="6.55" height="6.54"/><rect x="252.39" y="177.5" width="6.55" height="6.54"/><rect x="268.43" y="177.5" width="6.55" height="6.54"/><rect x="284.5" y="177.5" width="6.55" height="6.54"/><rect x="300.6" y="177.53" width="6.48" height="6.49"/><rect x="316.62" y="177.5" width="6.55" height="6.54"/><rect x="335.9" y="180.74" width="0.07" height="0.06"/><rect x="349.81" y="178.56" width="4.41" height="4.42"/><rect x="364.78" y="177.5" width="6.55" height="6.54"/><rect x="380.85" y="177.5" width="6.55" height="6.54"/><rect x="396.9" y="177.5" width="6.55" height="6.54"/><rect x="412.97" y="177.5" width="6.55" height="6.54"/><rect x="429.11" y="177.59" width="6.36" height="6.37"/><rect x="637.81" y="177.53" width="6.5" height="6.49"/><rect x="657.02" y="180.68" width="0.19" height="0.18"/><rect x="672.04" y="179.64" width="2.26" height="2.26"/><rect x="704.23" y="179.71" width="2.14" height="2.13"/><rect x="718.79" y="178.22" width="5.11" height="5.1"/><rect x="734.74" y="178.1" width="5.36" height="5.35"/><rect x="750.2" y="177.5" width="6.55" height="6.54"/><rect x="766.3" y="177.53" width="6.48" height="6.49"/><rect x="782.32" y="177.5" width="6.55" height="6.54"/><rect x="798.37" y="177.5" width="6.55" height="6.54"/><rect x="814.44" y="177.5" width="6.55" height="6.54"/><rect x="830.48" y="177.5" width="6.55" height="6.54"/><rect x="846.55" y="177.5" width="6.55" height="6.54"/><rect x="862.6" y="177.5" width="6.55" height="6.54"/><rect x="878.67" y="177.5" width="6.55" height="6.54"/><rect x="894.71" y="177.5" width="6.55" height="6.54"/><rect x="910.79" y="177.5" width="6.55" height="6.54"/><rect x="926.88" y="177.53" width="6.48" height="6.49"/><rect x="942.9" y="177.5" width="6.55" height="6.54"/><rect x="958.95" y="177.5" width="6.55" height="6.54"/><rect x="975.04" y="177.53" width="6.5" height="6.49"/><rect x="991.09" y="177.5" width="6.53" height="6.54"/><rect x="1007.13" y="177.5" width="6.55" height="6.54"/><rect x="1023.18" y="177.5" width="6.55" height="6.54"/><rect x="1039.25" y="177.5" width="6.55" height="6.54"/><rect x="1055.32" y="177.5" width="6.52" height="6.54"/><rect x="1071.37" y="177.5" width="6.55" height="6.54"/><rect x="1087.41" y="177.5" width="6.57" height="6.54"/><rect x="1103.48" y="177.5" width="6.55" height="6.54"/><rect x="1120.45" y="178.42" width="4.72" height="4.71"/><rect x="1135.6" y="177.5" width="6.55" height="6.54"/><rect x="1151.67" y="177.5" width="6.55" height="6.54"/><rect x="1167.74" y="177.53" width="6.5" height="6.49"/><rect x="1183.79" y="177.5" width="6.52" height="6.54"/><rect x="1199.83" y="177.5" width="6.55" height="6.54"/><rect x="1215.9" y="177.5" width="6.55" height="6.54"/><rect x="1232.05" y="177.59" width="6.36" height="6.37"/><rect x="1249.94" y="179.42" width="2.7" height="2.72"/><rect x="1312.28" y="177.53" width="6.5" height="6.49"/><rect x="1330.12" y="179.32" width="2.9" height="2.9"/><rect x="140.94" y="194.54" width="4.6" height="4.59"/><rect x="156.04" y="193.56" width="6.55" height="6.54"/><rect x="172.08" y="193.56" width="6.55" height="6.54"/><rect x="188.15" y="193.56" width="6.55" height="6.54"/><rect x="204.2" y="193.56" width="6.55" height="6.54"/><rect x="220.27" y="193.56" width="6.55" height="6.54"/><rect x="236.32" y="193.56" width="6.55" height="6.54"/><rect x="252.39" y="193.56" width="6.55" height="6.54"/><rect x="268.43" y="193.56" width="6.55" height="6.54"/><rect x="284.5" y="193.56" width="6.55" height="6.54"/><rect x="300.55" y="193.56" width="6.55" height="6.54"/><rect x="316.62" y="193.56" width="6.55" height="6.54"/><rect x="332.74" y="193.62" width="6.43" height="6.42"/><rect x="348.74" y="193.56" width="6.55" height="6.54"/><rect x="364.78" y="193.56" width="6.55" height="6.54"/><rect x="380.85" y="193.56" width="6.55" height="6.54"/><rect x="396.95" y="193.59" width="6.48" height="6.49"/><rect x="414.84" y="195.45" width="2.78" height="2.77"/><rect x="431.3" y="195.83" width="2" height="2.01"/><rect x="655.9" y="195.61" width="2.44" height="2.45"/><rect x="673.04" y="196.7" width="0.27" height="0.26"/><rect x="686.02" y="193.62" width="6.43" height="6.42"/><rect x="702.02" y="193.56" width="6.55" height="6.54"/><rect x="718.08" y="193.56" width="6.55" height="6.54"/><rect x="734.16" y="193.59" width="6.5" height="6.49"/><rect x="750.2" y="193.56" width="6.55" height="6.54"/><rect x="766.3" y="193.59" width="6.48" height="6.49"/><rect x="782.32" y="193.56" width="6.55" height="6.54"/><rect x="798.37" y="193.56" width="6.55" height="6.54"/><rect x="814.44" y="193.56" width="6.55" height="6.54"/><rect x="830.53" y="193.59" width="6.48" height="6.49"/><rect x="846.55" y="193.56" width="6.55" height="6.54"/><rect x="862.6" y="193.56" width="6.55" height="6.54"/><rect x="878.69" y="193.59" width="6.48" height="6.49"/><rect x="894.71" y="193.56" width="6.55" height="6.54"/><rect x="910.79" y="193.56" width="6.55" height="6.54"/><rect x="926.83" y="193.56" width="6.55" height="6.54"/><rect x="942.9" y="193.56" width="6.55" height="6.54"/><rect x="958.95" y="193.56" width="6.55" height="6.54"/><rect x="975.02" y="193.56" width="6.55" height="6.54"/><rect x="991.09" y="193.56" width="6.53" height="6.54"/><rect x="1007.13" y="193.56" width="6.55" height="6.54"/><rect x="1023.23" y="193.59" width="6.48" height="6.49"/><rect x="1039.25" y="193.56" width="6.55" height="6.54"/><rect x="1055.34" y="193.59" width="6.48" height="6.49"/><rect x="1071.39" y="193.59" width="6.5" height="6.49"/><rect x="1087.41" y="193.56" width="6.57" height="6.54"/><rect x="1103.51" y="193.59" width="6.5" height="6.49"/><rect x="1119.58" y="193.59" width="6.48" height="6.49"/><rect x="1135.6" y="193.56" width="6.55" height="6.54"/><rect x="1151.69" y="193.59" width="6.48" height="6.49"/><rect x="1167.71" y="193.56" width="6.55" height="6.54"/><rect x="1183.79" y="193.56" width="6.52" height="6.54"/><rect x="1199.83" y="193.56" width="6.55" height="6.54"/><rect x="1215.9" y="193.56" width="6.55" height="6.54"/><rect x="1231.95" y="193.56" width="6.55" height="6.54"/><rect x="1248.02" y="193.56" width="6.55" height="6.54"/><rect x="1267.23" y="196.7" width="0.24" height="0.26"/><rect x="1331.46" y="196.7" width="0.24" height="0.26"/><rect x="140.04" y="209.68" width="6.43" height="6.42"/><rect x="156.04" y="209.62" width="6.55" height="6.54"/><rect x="172.08" y="209.62" width="6.55" height="6.54"/><rect x="188.15" y="209.62" width="6.55" height="6.54"/><rect x="204.2" y="209.62" width="6.55" height="6.54"/><rect x="220.27" y="209.62" width="6.55" height="6.54"/><rect x="236.32" y="209.62" width="6.55" height="6.54"/><rect x="252.39" y="209.62" width="6.55" height="6.54"/><rect x="268.99" y="210.18" width="5.43" height="5.42"/><rect x="287.45" y="212.58" width="0.63" height="0.62"/><rect x="300.6" y="209.65" width="6.48" height="6.49"/><rect x="316.62" y="209.62" width="6.55" height="6.54"/><rect x="332.66" y="209.62" width="6.55" height="6.54"/><rect x="348.74" y="209.62" width="6.55" height="6.54"/><rect x="364.85" y="209.68" width="6.43" height="6.42"/><rect x="380.85" y="209.62" width="6.55" height="6.54"/><rect x="416.18" y="212.82" width="0.12" height="0.13"/><rect x="431.67" y="212.26" width="1.27" height="1.25"/><rect x="669.9" y="209.62" width="6.55" height="6.54"/><rect x="685.97" y="209.62" width="6.55" height="6.54"/><rect x="702.07" y="209.65" width="6.48" height="6.49"/><rect x="718.13" y="209.68" width="6.43" height="6.42"/><rect x="734.13" y="209.62" width="6.55" height="6.54"/><rect x="750.2" y="209.62" width="6.55" height="6.54"/><rect x="766.25" y="209.62" width="6.55" height="6.54"/><rect x="782.34" y="209.65" width="6.5" height="6.49"/><rect x="798.39" y="209.65" width="6.5" height="6.49"/><rect x="814.44" y="209.62" width="6.55" height="6.54"/><rect x="831.99" y="211.13" width="3.53" height="3.52"/><rect x="846.55" y="209.62" width="6.55" height="6.54"/><rect x="862.6" y="209.62" width="6.55" height="6.54"/><rect x="878.69" y="209.65" width="6.48" height="6.49"/><rect x="895.44" y="210.34" width="5.11" height="5.1"/><rect x="910.79" y="209.62" width="6.55" height="6.54"/><rect x="926.83" y="209.62" width="6.55" height="6.54"/><rect x="942.9" y="209.62" width="6.55" height="6.54"/><rect x="958.95" y="209.62" width="6.55" height="6.54"/><rect x="975.02" y="209.62" width="6.55" height="6.54"/><rect x="991.21" y="209.74" width="6.28" height="6.29"/><rect x="1007.26" y="209.74" width="6.31" height="6.29"/><rect x="1023.18" y="209.62" width="6.55" height="6.54"/><rect x="1039.25" y="209.62" width="6.55" height="6.54"/><rect x="1055.34" y="209.65" width="6.48" height="6.49"/><rect x="1071.37" y="209.62" width="6.55" height="6.54"/><rect x="1087.41" y="209.62" width="6.57" height="6.54"/><rect x="1103.48" y="209.62" width="6.55" height="6.54"/><rect x="1119.55" y="209.62" width="6.53" height="6.54"/><rect x="1135.6" y="209.62" width="6.55" height="6.54"/><rect x="1151.67" y="209.62" width="6.55" height="6.54"/><rect x="1167.71" y="209.62" width="6.55" height="6.54"/><rect x="1183.81" y="209.65" width="6.48" height="6.49"/><rect x="1199.83" y="209.62" width="6.55" height="6.54"/><rect x="1215.9" y="209.62" width="6.55" height="6.54"/><rect x="1232" y="209.65" width="6.48" height="6.49"/><rect x="1248.04" y="209.65" width="6.48" height="6.49"/><rect x="1264.82" y="210.38" width="5.04" height="5.03"/><rect x="1281.86" y="211.35" width="3.09" height="3.08"/><rect x="126.62" y="228.38" width="1.12" height="1.13"/><rect x="139.97" y="225.68" width="6.55" height="6.55"/><rect x="156.04" y="225.68" width="6.55" height="6.55"/><rect x="172.08" y="225.68" width="6.55" height="6.55"/><rect x="188.15" y="225.68" width="6.55" height="6.55"/><rect x="204.2" y="225.68" width="6.55" height="6.55"/><rect x="220.27" y="225.68" width="6.55" height="6.55"/><rect x="236.32" y="225.68" width="6.55" height="6.55"/><rect x="252.39" y="225.68" width="6.55" height="6.55"/><rect x="268.43" y="225.68" width="6.55" height="6.55"/><rect x="287.13" y="228.32" width="1.26" height="1.25"/><rect x="300.89" y="226.02" width="5.87" height="5.86"/><rect x="316.64" y="225.7" width="6.5" height="6.49"/><rect x="332.74" y="225.74" width="6.43" height="6.42"/><rect x="348.74" y="225.68" width="6.55" height="6.55"/><rect x="366.58" y="227.47" width="2.97" height="2.96"/><rect x="382.19" y="227.03" width="3.85" height="3.83"/><rect x="641.02" y="228.92" width="0.07" height="0.06"/><rect x="669.9" y="225.68" width="6.55" height="6.55"/><rect x="685.99" y="225.7" width="6.48" height="6.49"/><rect x="704.72" y="228.38" width="1.14" height="1.13"/><rect x="718.08" y="225.68" width="6.55" height="6.55"/><rect x="737.1" y="228.64" width="0.63" height="0.62"/><rect x="750.23" y="225.7" width="6.48" height="6.49"/><rect x="766.32" y="225.74" width="6.43" height="6.42"/><rect x="782.34" y="225.7" width="6.5" height="6.49"/><rect x="817.67" y="228.92" width="0.07" height="0.06"/><rect x="846.55" y="225.68" width="6.55" height="6.55"/><rect x="862.6" y="225.68" width="6.55" height="6.55"/><rect x="881.86" y="228.86" width="0.17" height="0.18"/><rect x="894.81" y="225.77" width="6.36" height="6.37"/><rect x="910.81" y="225.7" width="6.5" height="6.49"/><rect x="926.83" y="225.68" width="6.55" height="6.55"/><rect x="942.92" y="225.7" width="6.5" height="6.49"/><rect x="958.95" y="225.68" width="6.55" height="6.55"/><rect x="975.02" y="225.68" width="6.55" height="6.55"/><rect x="991.09" y="225.68" width="6.53" height="6.55"/><rect x="1007.13" y="225.68" width="6.55" height="6.55"/><rect x="1023.23" y="225.7" width="6.48" height="6.49"/><rect x="1039.25" y="225.68" width="6.55" height="6.55"/><rect x="1055.32" y="225.68" width="6.52" height="6.55"/><rect x="1071.37" y="225.68" width="6.55" height="6.55"/><rect x="1087.41" y="225.68" width="6.57" height="6.55"/><rect x="1103.48" y="225.68" width="6.55" height="6.55"/><rect x="1119.55" y="225.68" width="6.53" height="6.55"/><rect x="1135.6" y="225.68" width="6.55" height="6.55"/><rect x="1151.67" y="225.68" width="6.55" height="6.55"/><rect x="1167.71" y="225.68" width="6.55" height="6.55"/><rect x="1183.79" y="225.68" width="6.52" height="6.55"/><rect x="1199.83" y="225.68" width="6.55" height="6.55"/><rect x="1215.9" y="225.68" width="6.55" height="6.55"/><rect x="1231.95" y="225.68" width="6.55" height="6.55"/><rect x="1248.02" y="225.68" width="6.55" height="6.55"/><rect x="1267.08" y="228.7" width="0.51" height="0.5"/><rect x="1298.13" y="227.63" width="2.66" height="2.64"/><rect x="123.92" y="241.74" width="6.53" height="6.55"/><rect x="139.97" y="241.74" width="6.55" height="6.55"/><rect x="156.04" y="241.74" width="6.55" height="6.55"/><rect x="172.08" y="241.74" width="6.55" height="6.55"/><rect x="188.15" y="241.74" width="6.55" height="6.55"/><rect x="204.22" y="241.76" width="6.5" height="6.49"/><rect x="220.27" y="241.74" width="6.55" height="6.55"/><rect x="236.32" y="241.74" width="6.55" height="6.55"/><rect x="252.39" y="241.74" width="6.55" height="6.55"/><rect x="268.43" y="241.74" width="6.55" height="6.55"/><rect x="285.94" y="243.19" width="3.65" height="3.65"/><rect x="300.65" y="241.82" width="6.36" height="6.37"/><rect x="316.62" y="241.74" width="6.55" height="6.55"/><rect x="332.66" y="241.74" width="6.55" height="6.55"/><rect x="348.95" y="241.96" width="6.11" height="6.1"/><rect x="637.78" y="241.74" width="6.55" height="6.55"/><rect x="653.85" y="241.74" width="6.53" height="6.55"/><rect x="669.9" y="241.74" width="6.55" height="6.55"/><rect x="704.94" y="244.66" width="0.71" height="0.69"/><rect x="735.93" y="243.53" width="2.94" height="2.96"/><rect x="753.2" y="244.72" width="0.56" height="0.57"/><rect x="766.32" y="241.8" width="6.43" height="6.43"/><rect x="782.34" y="241.76" width="6.5" height="6.49"/><rect x="816.72" y="244.03" width="1.95" height="1.96"/><rect x="862.6" y="241.74" width="6.55" height="6.55"/><rect x="878.72" y="241.8" width="6.43" height="6.43"/><rect x="910.81" y="241.76" width="6.5" height="6.49"/><rect x="926.83" y="241.74" width="6.55" height="6.55"/><rect x="942.9" y="241.74" width="6.55" height="6.55"/><rect x="958.95" y="241.74" width="6.55" height="6.55"/><rect x="975.04" y="241.76" width="6.5" height="6.49"/><rect x="991.09" y="241.74" width="6.53" height="6.55"/><rect x="1007.13" y="241.74" width="6.55" height="6.55"/><rect x="1023.23" y="241.76" width="6.48" height="6.49"/><rect x="1039.25" y="241.74" width="6.55" height="6.55"/><rect x="1055.32" y="241.74" width="6.52" height="6.55"/><rect x="1071.37" y="241.74" width="6.55" height="6.55"/><rect x="1087.41" y="241.74" width="6.57" height="6.55"/><rect x="1103.48" y="241.74" width="6.55" height="6.55"/><rect x="1119.58" y="241.76" width="6.48" height="6.49"/><rect x="1135.62" y="241.76" width="6.5" height="6.49"/><rect x="1151.67" y="241.74" width="6.55" height="6.55"/><rect x="1167.71" y="241.74" width="6.55" height="6.55"/><rect x="1183.79" y="241.74" width="6.52" height="6.55"/><rect x="1199.83" y="241.74" width="6.55" height="6.55"/><rect x="1215.9" y="241.74" width="6.55" height="6.55"/><rect x="1232" y="241.76" width="6.48" height="6.49"/><rect x="1250.84" y="244.56" width="0.88" height="0.89"/><rect x="1299.37" y="244.91" width="0.17" height="0.18"/><rect x="109.12" y="259.05" width="4.02" height="4.03"/><rect x="123.92" y="257.8" width="6.53" height="6.55"/><rect x="139.97" y="257.8" width="6.55" height="6.55"/><rect x="156.04" y="257.8" width="6.55" height="6.55"/><rect x="172.08" y="257.8" width="6.55" height="6.55"/><rect x="188.18" y="257.82" width="6.48" height="6.49"/><rect x="204.2" y="257.8" width="6.55" height="6.55"/><rect x="220.27" y="257.8" width="6.55" height="6.55"/><rect x="236.32" y="257.8" width="6.55" height="6.55"/><rect x="252.39" y="257.8" width="6.55" height="6.55"/><rect x="268.43" y="257.8" width="6.55" height="6.55"/><rect x="284.5" y="257.8" width="6.55" height="6.55"/><rect x="300.55" y="257.8" width="6.55" height="6.55"/><rect x="316.67" y="257.86" width="6.43" height="6.43"/><rect x="624.46" y="260.54" width="1.07" height="1.07"/><rect x="637.78" y="257.8" width="6.55" height="6.55"/><rect x="653.85" y="257.8" width="6.53" height="6.55"/><rect x="705.16" y="260.94" width="0.27" height="0.26"/><rect x="766.66" y="258.2" width="5.72" height="5.73"/><rect x="784.68" y="260.16" width="1.83" height="1.83"/><rect x="798.37" y="257.8" width="6.55" height="6.55"/><rect x="814.44" y="257.8" width="6.55" height="6.55"/><rect x="830.48" y="257.8" width="6.55" height="6.55"/><rect x="846.55" y="257.8" width="6.55" height="6.55"/><rect x="862.65" y="257.82" width="6.48" height="6.49"/><rect x="878.69" y="257.82" width="6.48" height="6.49"/><rect x="910.91" y="257.92" width="6.31" height="6.29"/><rect x="926.83" y="257.8" width="6.55" height="6.55"/><rect x="942.9" y="257.8" width="6.55" height="6.55"/><rect x="958.99" y="257.82" width="6.48" height="6.49"/><rect x="975.04" y="257.82" width="6.5" height="6.49"/><rect x="991.09" y="257.8" width="6.53" height="6.55"/><rect x="1007.13" y="257.8" width="6.55" height="6.55"/><rect x="1023.18" y="257.8" width="6.55" height="6.55"/><rect x="1039.25" y="257.8" width="6.55" height="6.55"/><rect x="1055.32" y="257.8" width="6.52" height="6.55"/><rect x="1071.37" y="257.8" width="6.55" height="6.55"/><rect x="1087.41" y="257.8" width="6.57" height="6.55"/><rect x="1103.48" y="257.8" width="6.55" height="6.55"/><rect x="1119.55" y="257.8" width="6.53" height="6.55"/><rect x="1135.62" y="257.82" width="6.5" height="6.49"/><rect x="1151.67" y="257.8" width="6.55" height="6.55"/><rect x="1167.71" y="257.8" width="6.55" height="6.55"/><rect x="1183.79" y="257.8" width="6.52" height="6.55"/><rect x="1202.97" y="260.94" width="0.27" height="0.26"/><rect x="1219.14" y="261.03" width="0.05" height="0.06"/><rect x="1231.95" y="257.8" width="6.55" height="6.55"/><rect x="1250.99" y="260.78" width="0.58" height="0.57"/><rect x="1296.91" y="258.51" width="5.11" height="5.1"/><rect x="110.53" y="276.53" width="1.19" height="1.19"/><rect x="123.92" y="273.86" width="6.53" height="6.55"/><rect x="139.97" y="273.86" width="6.55" height="6.55"/><rect x="156.04" y="273.86" width="6.55" height="6.55"/><rect x="172.08" y="273.86" width="6.55" height="6.55"/><rect x="188.15" y="273.86" width="6.55" height="6.55"/><rect x="204.2" y="273.86" width="6.55" height="6.55"/><rect x="220.27" y="273.86" width="6.55" height="6.55"/><rect x="236.32" y="273.86" width="6.55" height="6.55"/><rect x="252.39" y="273.86" width="6.55" height="6.55"/><rect x="268.43" y="273.86" width="6.55" height="6.55"/><rect x="284.5" y="273.86" width="6.55" height="6.55"/><rect x="300.6" y="273.88" width="6.48" height="6.49"/><rect x="319.2" y="276.44" width="1.39" height="1.39"/><rect x="639.8" y="275.86" width="2.51" height="2.52"/><rect x="657.02" y="277.03" width="0.19" height="0.18"/><rect x="669.9" y="273.86" width="6.55" height="6.55"/><rect x="685.97" y="273.86" width="6.55" height="6.55"/><rect x="702.07" y="273.88" width="6.48" height="6.49"/><rect x="720.79" y="276.56" width="1.14" height="1.13"/><rect x="785.53" y="277.06" width="0.12" height="0.13"/><rect x="817.67" y="277.09" width="0.07" height="0.06"/><rect x="831.62" y="274.99" width="4.29" height="4.27"/><rect x="846.55" y="273.86" width="6.55" height="6.55"/><rect x="862.6" y="273.86" width="6.55" height="6.55"/><rect x="878.69" y="273.88" width="6.48" height="6.49"/><rect x="894.71" y="273.86" width="6.55" height="6.55"/><rect x="910.79" y="273.86" width="6.55" height="6.55"/><rect x="926.83" y="273.86" width="6.55" height="6.55"/><rect x="942.9" y="273.86" width="6.55" height="6.55"/><rect x="958.99" y="273.88" width="6.48" height="6.49"/><rect x="975.02" y="273.86" width="6.55" height="6.55"/><rect x="991.11" y="273.88" width="6.48" height="6.49"/><rect x="1007.13" y="273.86" width="6.55" height="6.55"/><rect x="1023.23" y="273.88" width="6.48" height="6.49"/><rect x="1039.25" y="273.86" width="6.55" height="6.55"/><rect x="1055.32" y="273.86" width="6.52" height="6.55"/><rect x="1071.37" y="273.86" width="6.55" height="6.55"/><rect x="1087.41" y="273.86" width="6.57" height="6.55"/><rect x="1103.48" y="273.86" width="6.55" height="6.55"/><rect x="1119.55" y="273.86" width="6.53" height="6.55"/><rect x="1135.6" y="273.86" width="6.55" height="6.55"/><rect x="1151.67" y="273.86" width="6.55" height="6.55"/><rect x="1167.71" y="273.86" width="6.55" height="6.55"/><rect x="1183.79" y="273.86" width="6.52" height="6.55"/><rect x="1199.83" y="273.86" width="6.55" height="6.55"/><rect x="1248.82" y="274.67" width="4.92" height="4.91"/><rect x="1282.42" y="276.16" width="1.95" height="1.95"/><rect x="1296.18" y="273.86" width="6.55" height="6.55"/><rect x="126.43" y="292.43" width="1.51" height="1.51"/><rect x="139.99" y="289.94" width="6.5" height="6.49"/><rect x="156.04" y="289.91" width="6.55" height="6.55"/><rect x="172.08" y="289.91" width="6.55" height="6.55"/><rect x="188.15" y="289.91" width="6.55" height="6.55"/><rect x="204.2" y="289.91" width="6.55" height="6.55"/><rect x="220.27" y="289.91" width="6.55" height="6.55"/><rect x="236.32" y="289.91" width="6.55" height="6.55"/><rect x="252.39" y="289.91" width="6.55" height="6.55"/><rect x="268.43" y="289.91" width="6.55" height="6.55"/><rect x="284.5" y="289.91" width="6.55" height="6.55"/><rect x="622.98" y="291.17" width="4.04" height="4.03"/><rect x="637.78" y="289.91" width="6.55" height="6.55"/><rect x="653.88" y="289.94" width="6.48" height="6.49"/><rect x="669.9" y="289.91" width="6.55" height="6.55"/><rect x="685.97" y="289.91" width="6.55" height="6.55"/><rect x="702.07" y="289.94" width="6.48" height="6.49"/><rect x="718.11" y="289.94" width="6.48" height="6.49"/><rect x="736.45" y="292.21" width="1.95" height="1.95"/><rect x="766.76" y="290.41" width="5.53" height="5.54"/><rect x="830.55" y="289.97" width="6.43" height="6.43"/><rect x="846.58" y="289.94" width="6.5" height="6.49"/><rect x="862.6" y="289.91" width="6.55" height="6.55"/><rect x="878.67" y="289.91" width="6.55" height="6.55"/><rect x="894.71" y="289.91" width="6.55" height="6.55"/><rect x="910.79" y="289.91" width="6.55" height="6.55"/><rect x="926.83" y="289.91" width="6.55" height="6.55"/><rect x="942.9" y="289.91" width="6.55" height="6.55"/><rect x="958.95" y="289.91" width="6.55" height="6.55"/><rect x="975.02" y="289.91" width="6.55" height="6.55"/><rect x="991.09" y="289.91" width="6.53" height="6.55"/><rect x="1007.16" y="289.94" width="6.5" height="6.49"/><rect x="1023.18" y="289.91" width="6.55" height="6.55"/><rect x="1039.25" y="289.91" width="6.55" height="6.55"/><rect x="1055.32" y="289.91" width="6.52" height="6.55"/><rect x="1071.37" y="289.91" width="6.55" height="6.55"/><rect x="1087.41" y="289.91" width="6.57" height="6.55"/><rect x="1103.48" y="289.91" width="6.55" height="6.55"/><rect x="1119.55" y="289.91" width="6.53" height="6.55"/><rect x="1135.6" y="289.91" width="6.55" height="6.55"/><rect x="1151.67" y="289.91" width="6.55" height="6.55"/><rect x="1167.71" y="289.91" width="6.55" height="6.55"/><rect x="1183.79" y="289.91" width="6.52" height="6.55"/><rect x="1199.83" y="289.91" width="6.55" height="6.55"/><rect x="1215.93" y="289.94" width="6.48" height="6.49"/><rect x="1267.28" y="293.13" width="0.12" height="0.12"/><rect x="1283.37" y="293.15" width="0.05" height="0.06"/><rect x="126.96" y="309.03" width="0.44" height="0.44"/><rect x="141.06" y="307.07" width="4.36" height="4.35"/><rect x="156.04" y="305.97" width="6.55" height="6.55"/><rect x="172.11" y="305.99" width="6.5" height="6.49"/><rect x="188.15" y="305.97" width="6.55" height="6.55"/><rect x="204.2" y="305.97" width="6.55" height="6.55"/><rect x="220.27" y="305.97" width="6.55" height="6.55"/><rect x="236.32" y="305.97" width="6.55" height="6.55"/><rect x="254.65" y="308.24" width="2.02" height="2.01"/><rect x="268.46" y="305.99" width="6.5" height="6.49"/><rect x="285.94" y="307.42" width="3.65" height="3.65"/><rect x="621.74" y="305.97" width="6.55" height="6.55"/><rect x="637.81" y="305.99" width="6.5" height="6.49"/><rect x="653.85" y="305.97" width="6.53" height="6.55"/><rect x="669.9" y="305.97" width="6.55" height="6.55"/><rect x="685.97" y="305.97" width="6.55" height="6.55"/><rect x="702.02" y="305.97" width="6.55" height="6.55"/><rect x="718.08" y="305.97" width="6.55" height="6.55"/><rect x="734.13" y="305.97" width="6.55" height="6.55"/><rect x="751.52" y="307.29" width="3.89" height="3.91"/><rect x="766.25" y="305.97" width="6.55" height="6.55"/><rect x="782.32" y="305.97" width="6.55" height="6.55"/><rect x="798.37" y="305.97" width="6.55" height="6.55"/><rect x="814.46" y="305.99" width="6.48" height="6.49"/><rect x="830.53" y="305.99" width="6.48" height="6.49"/><rect x="846.55" y="305.97" width="6.55" height="6.55"/><rect x="862.65" y="305.99" width="6.48" height="6.49"/><rect x="878.67" y="305.97" width="6.55" height="6.55"/><rect x="896.17" y="307.42" width="3.65" height="3.65"/><rect x="910.79" y="305.97" width="6.55" height="6.55"/><rect x="926.83" y="305.97" width="6.55" height="6.55"/><rect x="942.9" y="305.97" width="6.55" height="6.55"/><rect x="958.95" y="305.97" width="6.55" height="6.55"/><rect x="975.04" y="305.99" width="6.5" height="6.49"/><rect x="991.09" y="305.97" width="6.53" height="6.55"/><rect x="1007.16" y="305.99" width="6.5" height="6.49"/><rect x="1023.18" y="305.97" width="6.55" height="6.55"/><rect x="1039.27" y="305.99" width="6.5" height="6.49"/><rect x="1055.32" y="305.97" width="6.52" height="6.55"/><rect x="1071.37" y="305.97" width="6.55" height="6.55"/><rect x="1087.41" y="305.97" width="6.57" height="6.55"/><rect x="1103.48" y="305.97" width="6.55" height="6.55"/><rect x="1119.55" y="305.97" width="6.53" height="6.55"/><rect x="1135.6" y="305.97" width="6.55" height="6.55"/><rect x="1151.69" y="305.99" width="6.48" height="6.49"/><rect x="1167.71" y="305.97" width="6.55" height="6.55"/><rect x="1183.79" y="305.97" width="6.52" height="6.55"/><rect x="1199.83" y="305.97" width="6.55" height="6.55"/><rect x="1215.9" y="305.97" width="6.55" height="6.55"/><rect x="1235.16" y="309.19" width="0.12" height="0.12"/><rect x="156.04" y="322.03" width="6.55" height="6.55"/><rect x="172.08" y="322.03" width="6.55" height="6.55"/><rect x="188.15" y="322.03" width="6.55" height="6.55"/><rect x="204.27" y="322.09" width="6.43" height="6.43"/><rect x="284.58" y="322.13" width="6.38" height="6.36"/><rect x="605.69" y="322.05" width="6.5" height="6.49"/><rect x="621.78" y="322.09" width="6.43" height="6.43"/><rect x="637.78" y="322.03" width="6.55" height="6.55"/><rect x="653.85" y="322.03" width="6.53" height="6.55"/><rect x="669.9" y="322.03" width="6.55" height="6.55"/><rect x="685.97" y="322.03" width="6.55" height="6.55"/><rect x="702.02" y="322.03" width="6.55" height="6.55"/><rect x="718.08" y="322.03" width="6.55" height="6.55"/><rect x="734.13" y="322.03" width="6.55" height="6.55"/><rect x="750.2" y="322.03" width="6.55" height="6.55"/><rect x="766.25" y="322.03" width="6.55" height="6.55"/><rect x="782.32" y="322.03" width="6.55" height="6.55"/><rect x="798.37" y="322.03" width="6.55" height="6.55"/><rect x="814.44" y="322.03" width="6.55" height="6.55"/><rect x="833.4" y="324.95" width="0.71" height="0.69"/><rect x="846.55" y="322.03" width="6.55" height="6.55"/><rect x="862.6" y="322.03" width="6.55" height="6.55"/><rect x="878.67" y="322.03" width="6.55" height="6.55"/><rect x="895.74" y="323.04" width="4.53" height="4.53"/><rect x="913.66" y="324.89" width="0.8" height="0.82"/><rect x="927.9" y="323.1" width="4.41" height="4.41"/><rect x="942.9" y="322.03" width="6.55" height="6.55"/><rect x="958.95" y="322.03" width="6.55" height="6.55"/><rect x="975.02" y="322.03" width="6.55" height="6.55"/><rect x="991.11" y="322.05" width="6.48" height="6.49"/><rect x="1007.13" y="322.03" width="6.55" height="6.55"/><rect x="1023.18" y="322.03" width="6.55" height="6.55"/><rect x="1039.25" y="322.03" width="6.55" height="6.55"/><rect x="1055.34" y="322.05" width="6.48" height="6.49"/><rect x="1071.37" y="322.03" width="6.55" height="6.55"/><rect x="1087.46" y="322.05" width="6.48" height="6.49"/><rect x="1103.48" y="322.03" width="6.55" height="6.55"/><rect x="1119.58" y="322.05" width="6.48" height="6.49"/><rect x="1135.6" y="322.03" width="6.55" height="6.55"/><rect x="1151.67" y="322.03" width="6.55" height="6.55"/><rect x="1167.71" y="322.03" width="6.55" height="6.55"/><rect x="1183.79" y="322.03" width="6.52" height="6.55"/><rect x="1199.83" y="322.03" width="6.55" height="6.55"/><rect x="1215.9" y="322.03" width="6.55" height="6.55"/><rect x="141.01" y="339.12" width="4.46" height="4.47"/><rect x="157.26" y="339.32" width="4.09" height="4.09"/><rect x="172.08" y="338.09" width="6.55" height="6.55"/><rect x="188.15" y="338.09" width="6.55" height="6.55"/><rect x="207.41" y="341.3" width="0.12" height="0.12"/><rect x="592.35" y="340.83" width="1.07" height="1.07"/><rect x="605.67" y="338.09" width="6.55" height="6.55"/><rect x="621.74" y="338.09" width="6.55" height="6.55"/><rect x="637.78" y="338.09" width="6.55" height="6.55"/><rect x="653.85" y="338.09" width="6.53" height="6.55"/><rect x="669.9" y="338.09" width="6.55" height="6.55"/><rect x="685.97" y="338.09" width="6.55" height="6.55"/><rect x="702.02" y="338.09" width="6.55" height="6.55"/><rect x="718.11" y="338.11" width="6.48" height="6.49"/><rect x="734.13" y="338.09" width="6.55" height="6.55"/><rect x="750.2" y="338.09" width="6.55" height="6.55"/><rect x="766.25" y="338.09" width="6.55" height="6.55"/><rect x="782.34" y="338.11" width="6.5" height="6.49"/><rect x="798.37" y="338.09" width="6.55" height="6.55"/><rect x="814.44" y="338.09" width="6.55" height="6.55"/><rect x="832.43" y="340.04" width="2.65" height="2.64"/><rect x="846.55" y="338.09" width="6.55" height="6.55"/><rect x="862.6" y="338.09" width="6.55" height="6.55"/><rect x="878.67" y="338.09" width="6.55" height="6.55"/><rect x="894.71" y="338.09" width="6.55" height="6.55"/><rect x="912.42" y="339.72" width="3.29" height="3.27"/><rect x="926.88" y="338.11" width="6.48" height="6.49"/><rect x="946.14" y="341.32" width="0.07" height="0.06"/><rect x="991.11" y="338.11" width="6.48" height="6.49"/><rect x="1007.13" y="338.09" width="6.55" height="6.55"/><rect x="1023.18" y="338.09" width="6.55" height="6.55"/><rect x="1039.25" y="338.09" width="6.55" height="6.55"/><rect x="1055.32" y="338.09" width="6.52" height="6.55"/><rect x="1071.37" y="338.09" width="6.55" height="6.55"/><rect x="1087.41" y="338.09" width="6.57" height="6.55"/><rect x="1103.51" y="338.11" width="6.5" height="6.49"/><rect x="1119.55" y="338.09" width="6.53" height="6.55"/><rect x="1135.6" y="338.09" width="6.55" height="6.55"/><rect x="1151.67" y="338.09" width="6.55" height="6.55"/><rect x="1167.71" y="338.09" width="6.55" height="6.55"/><rect x="1183.79" y="338.09" width="6.52" height="6.55"/><rect x="1199.83" y="338.09" width="6.55" height="6.55"/><rect x="1215.93" y="338.11" width="6.48" height="6.49"/><rect x="1234.31" y="340.45" width="1.83" height="1.83"/><rect x="172.08" y="354.15" width="6.55" height="6.55"/><rect x="188.15" y="354.15" width="6.55" height="6.55"/><rect x="236.9" y="354.7" width="5.41" height="5.42"/><rect x="302.28" y="355.87" width="3.09" height="3.09"/><rect x="589.65" y="354.17" width="6.48" height="6.49"/><rect x="605.67" y="354.15" width="6.55" height="6.55"/><rect x="621.74" y="354.15" width="6.55" height="6.55"/><rect x="637.78" y="354.15" width="6.55" height="6.55"/><rect x="653.85" y="354.15" width="6.53" height="6.55"/><rect x="669.92" y="354.17" width="6.5" height="6.49"/><rect x="685.97" y="354.15" width="6.55" height="6.55"/><rect x="702.02" y="354.15" width="6.55" height="6.55"/><rect x="718.08" y="354.15" width="6.55" height="6.55"/><rect x="734.13" y="354.15" width="6.55" height="6.55"/><rect x="750.2" y="354.15" width="6.55" height="6.55"/><rect x="766.3" y="354.17" width="6.48" height="6.49"/><rect x="782.37" y="354.21" width="6.43" height="6.43"/><rect x="798.37" y="354.15" width="6.55" height="6.55"/><rect x="814.44" y="354.15" width="6.55" height="6.55"/><rect x="830.48" y="354.15" width="6.55" height="6.55"/><rect x="849.77" y="357.36" width="0.12" height="0.12"/><rect x="862.6" y="354.15" width="6.55" height="6.55"/><rect x="878.67" y="354.15" width="6.55" height="6.55"/><rect x="894.71" y="354.15" width="6.55" height="6.55"/><rect x="910.79" y="354.15" width="6.55" height="6.55"/><rect x="926.88" y="354.17" width="6.48" height="6.49"/><rect x="943.12" y="354.37" width="6.11" height="6.11"/><rect x="1009.84" y="356.85" width="1.14" height="1.13"/><rect x="1023.18" y="354.15" width="6.55" height="6.55"/><rect x="1039.25" y="354.15" width="6.55" height="6.55"/><rect x="1055.32" y="354.15" width="6.52" height="6.55"/><rect x="1071.37" y="354.15" width="6.55" height="6.55"/><rect x="1106.48" y="357.13" width="0.56" height="0.57"/><rect x="1119.55" y="354.15" width="6.53" height="6.55"/><rect x="1135.6" y="354.15" width="6.55" height="6.55"/><rect x="1151.69" y="354.17" width="6.48" height="6.49"/><rect x="1167.71" y="354.15" width="6.55" height="6.55"/><rect x="1235.11" y="357.3" width="0.24" height="0.24"/><rect x="174.57" y="372.69" width="1.58" height="1.58"/><rect x="188.15" y="370.2" width="6.55" height="6.55"/><rect x="204.2" y="370.2" width="6.55" height="6.55"/><rect x="220.27" y="370.2" width="6.55" height="6.55"/><rect x="236.54" y="370.42" width="6.11" height="6.11"/><rect x="319.61" y="373.19" width="0.56" height="0.57"/><rect x="351.78" y="373.26" width="0.44" height="0.44"/><rect x="368.04" y="373.44" width="0.05" height="0.06"/><rect x="589.65" y="370.23" width="6.48" height="6.49"/><rect x="605.67" y="370.2" width="6.55" height="6.55"/><rect x="621.74" y="370.2" width="6.55" height="6.55"/><rect x="637.78" y="370.2" width="6.55" height="6.55"/><rect x="653.85" y="370.2" width="6.53" height="6.55"/><rect x="669.9" y="370.2" width="6.55" height="6.55"/><rect x="685.97" y="370.2" width="6.55" height="6.55"/><rect x="702.02" y="370.2" width="6.55" height="6.55"/><rect x="718.08" y="370.2" width="6.55" height="6.55"/><rect x="734.13" y="370.2" width="6.55" height="6.55"/><rect x="750.2" y="370.2" width="6.55" height="6.55"/><rect x="766.25" y="370.2" width="6.55" height="6.55"/><rect x="782.32" y="370.2" width="6.55" height="6.55"/><rect x="798.37" y="370.2" width="6.55" height="6.55"/><rect x="814.44" y="370.2" width="6.55" height="6.55"/><rect x="830.48" y="370.2" width="6.55" height="6.55"/><rect x="848.69" y="372.35" width="2.26" height="2.26"/><rect x="863.57" y="371.18" width="4.6" height="4.6"/><rect x="878.69" y="370.23" width="6.48" height="6.49"/><rect x="894.76" y="370.23" width="6.48" height="6.49"/><rect x="910.79" y="370.2" width="6.55" height="6.55"/><rect x="928.61" y="371.97" width="3.02" height="3.02"/><rect x="1023.18" y="370.2" width="6.55" height="6.55"/><rect x="1039.25" y="370.2" width="6.55" height="6.55"/><rect x="1055.32" y="370.2" width="6.52" height="6.55"/><rect x="1119.68" y="370.32" width="6.28" height="6.29"/><rect x="1135.6" y="370.2" width="6.55" height="6.55"/><rect x="1151.69" y="370.23" width="6.48" height="6.49"/><rect x="1167.74" y="370.23" width="6.5" height="6.49"/><rect x="1248.04" y="370.23" width="6.48" height="6.49"/><rect x="191.37" y="389.48" width="0.12" height="0.12"/><rect x="207.14" y="389.18" width="0.68" height="0.69"/><rect x="220.29" y="386.28" width="6.48" height="6.49"/><rect x="237.78" y="387.71" width="3.65" height="3.65"/><rect x="253.92" y="387.81" width="3.46" height="3.46"/><rect x="589.62" y="386.26" width="6.53" height="6.55"/><rect x="605.69" y="386.28" width="6.5" height="6.49"/><rect x="621.74" y="386.26" width="6.55" height="6.55"/><rect x="637.78" y="386.26" width="6.55" height="6.55"/><rect x="653.85" y="386.26" width="6.53" height="6.55"/><rect x="669.9" y="386.26" width="6.55" height="6.55"/><rect x="685.97" y="386.26" width="6.55" height="6.55"/><rect x="702.02" y="386.26" width="6.55" height="6.55"/><rect x="718.08" y="386.26" width="6.55" height="6.55"/><rect x="734.16" y="386.28" width="6.5" height="6.49"/><rect x="750.2" y="386.26" width="6.55" height="6.55"/><rect x="766.25" y="386.26" width="6.55" height="6.55"/><rect x="782.32" y="386.26" width="6.55" height="6.55"/><rect x="798.37" y="386.26" width="6.55" height="6.55"/><rect x="814.44" y="386.26" width="6.55" height="6.55"/><rect x="830.48" y="386.26" width="6.55" height="6.55"/><rect x="846.55" y="386.26" width="6.55" height="6.55"/><rect x="865.74" y="389.41" width="0.27" height="0.24"/><rect x="878.67" y="386.26" width="6.55" height="6.55"/><rect x="894.71" y="386.26" width="6.55" height="6.55"/><rect x="912.05" y="387.52" width="4.02" height="4.03"/><rect x="1023.23" y="386.28" width="6.48" height="6.49"/><rect x="1039.25" y="386.26" width="6.55" height="6.55"/><rect x="1122.48" y="389.18" width="0.68" height="0.69"/><rect x="1135.62" y="386.28" width="6.5" height="6.49"/><rect x="1151.67" y="386.26" width="6.55" height="6.55"/><rect x="1167.71" y="386.26" width="6.55" height="6.55"/><rect x="1184.47" y="386.96" width="5.16" height="5.16"/><rect x="1248.31" y="386.58" width="5.94" height="5.92"/><rect x="252.39" y="402.32" width="6.55" height="6.55"/><rect x="319.69" y="405.4" width="0.39" height="0.38"/><rect x="589.65" y="402.36" width="6.48" height="6.48"/><rect x="605.74" y="402.38" width="6.43" height="6.43"/><rect x="621.74" y="402.32" width="6.55" height="6.55"/><rect x="637.81" y="402.36" width="6.5" height="6.48"/><rect x="653.85" y="402.32" width="6.53" height="6.55"/><rect x="669.92" y="402.36" width="6.5" height="6.48"/><rect x="685.97" y="402.32" width="6.55" height="6.55"/><rect x="702.07" y="402.36" width="6.48" height="6.48"/><rect x="718.08" y="402.32" width="6.55" height="6.55"/><rect x="734.2" y="402.38" width="6.43" height="6.43"/><rect x="750.2" y="402.32" width="6.55" height="6.55"/><rect x="766.25" y="402.32" width="6.55" height="6.55"/><rect x="782.32" y="402.32" width="6.55" height="6.55"/><rect x="798.37" y="402.32" width="6.55" height="6.55"/><rect x="814.44" y="402.32" width="6.55" height="6.55"/><rect x="830.48" y="402.32" width="6.55" height="6.55"/><rect x="846.55" y="402.32" width="6.55" height="6.55"/><rect x="862.65" y="402.36" width="6.48" height="6.48"/><rect x="881.44" y="405.09" width="1" height="1"/><rect x="1039.25" y="402.32" width="6.55" height="6.55"/><rect x="1138.79" y="405.5" width="0.17" height="0.19"/><rect x="1154.08" y="404.74" width="1.7" height="1.7"/><rect x="1167.71" y="402.32" width="6.55" height="6.55"/><rect x="1183.81" y="402.36" width="6.48" height="6.48"/><rect x="1250.82" y="405.12" width="0.95" height="0.95"/><rect x="1266.65" y="404.9" width="1.39" height="1.39"/><rect x="254.21" y="420.2" width="2.9" height="2.9"/><rect x="271.62" y="421.56" width="0.19" height="0.19"/><rect x="287.3" y="421.18" width="0.95" height="0.95"/><rect x="300.55" y="418.38" width="6.55" height="6.55"/><rect x="318.42" y="420.17" width="2.95" height="2.96"/><rect x="332.66" y="418.38" width="6.55" height="6.55"/><rect x="348.74" y="418.38" width="6.55" height="6.55"/><rect x="365.63" y="419.23" width="4.84" height="4.85"/><rect x="605.69" y="418.41" width="6.5" height="6.48"/><rect x="621.76" y="418.41" width="6.47" height="6.48"/><rect x="637.81" y="418.41" width="6.5" height="6.48"/><rect x="653.85" y="418.38" width="6.53" height="6.55"/><rect x="669.92" y="418.41" width="6.5" height="6.48"/><rect x="685.97" y="418.38" width="6.55" height="6.55"/><rect x="702.02" y="418.38" width="6.55" height="6.55"/><rect x="718.08" y="418.38" width="6.55" height="6.55"/><rect x="734.16" y="418.41" width="6.5" height="6.48"/><rect x="750.2" y="418.38" width="6.55" height="6.55"/><rect x="766.25" y="418.38" width="6.55" height="6.55"/><rect x="782.32" y="418.38" width="6.55" height="6.55"/><rect x="798.37" y="418.38" width="6.55" height="6.55"/><rect x="814.44" y="418.38" width="6.55" height="6.55"/><rect x="830.48" y="418.38" width="6.55" height="6.55"/><rect x="846.55" y="418.38" width="6.55" height="6.55"/><rect x="862.6" y="418.38" width="6.55" height="6.55"/><rect x="878.69" y="418.41" width="6.48" height="6.48"/><rect x="894.71" y="418.38" width="6.55" height="6.55"/><rect x="1039.25" y="418.38" width="6.55" height="6.55"/><rect x="1058.51" y="421.59" width="0.12" height="0.12"/><rect x="1234.82" y="421.24" width="0.83" height="0.83"/><rect x="1267.06" y="421.37" width="0.56" height="0.56"/><rect x="300.55" y="434.44" width="6.55" height="6.55"/><rect x="316.62" y="434.44" width="6.55" height="6.55"/><rect x="332.71" y="434.47" width="6.48" height="6.48"/><rect x="348.74" y="434.44" width="6.55" height="6.55"/><rect x="364.83" y="434.47" width="6.48" height="6.48"/><rect x="381.8" y="435.39" width="4.65" height="4.65"/><rect x="400.11" y="437.65" width="0.12" height="0.12"/><rect x="621.76" y="434.47" width="6.47" height="6.48"/><rect x="637.78" y="434.44" width="6.55" height="6.55"/><rect x="653.85" y="434.44" width="6.53" height="6.55"/><rect x="671.73" y="436.26" width="2.9" height="2.9"/><rect x="686.85" y="435.32" width="4.77" height="4.77"/><rect x="702.02" y="434.44" width="6.55" height="6.55"/><rect x="718.11" y="434.47" width="6.48" height="6.48"/><rect x="734.16" y="434.47" width="6.5" height="6.48"/><rect x="750.2" y="434.44" width="6.55" height="6.55"/><rect x="766.25" y="434.44" width="6.55" height="6.55"/><rect x="782.32" y="434.44" width="6.55" height="6.55"/><rect x="798.37" y="434.44" width="6.55" height="6.55"/><rect x="814.44" y="434.44" width="6.55" height="6.55"/><rect x="830.48" y="434.44" width="6.55" height="6.55"/><rect x="846.55" y="434.44" width="6.55" height="6.55"/><rect x="862.6" y="434.44" width="6.55" height="6.55"/><rect x="878.67" y="434.44" width="6.55" height="6.55"/><rect x="894.71" y="434.44" width="6.55" height="6.55"/><rect x="1056.98" y="436.1" width="3.21" height="3.21"/><rect x="1151.84" y="434.62" width="6.19" height="6.19"/><rect x="1233.99" y="436.48" width="2.46" height="2.46"/><rect x="1267.25" y="437.61" width="0.19" height="0.19"/><rect x="300.55" y="450.49" width="6.55" height="6.55"/><rect x="316.62" y="450.49" width="6.55" height="6.55"/><rect x="332.71" y="450.53" width="6.48" height="6.48"/><rect x="348.76" y="450.53" width="6.48" height="6.48"/><rect x="364.83" y="450.53" width="6.48" height="6.48"/><rect x="380.88" y="450.53" width="6.5" height="6.48"/><rect x="396.95" y="450.53" width="6.48" height="6.48"/><rect x="624.83" y="453.61" width="0.34" height="0.32"/><rect x="704.98" y="453.45" width="0.63" height="0.63"/><rect x="718.08" y="450.49" width="6.55" height="6.55"/><rect x="734.16" y="450.53" width="6.5" height="6.48"/><rect x="750.23" y="450.53" width="6.48" height="6.48"/><rect x="766.3" y="450.53" width="6.48" height="6.48"/><rect x="782.32" y="450.49" width="6.55" height="6.55"/><rect x="798.37" y="450.49" width="6.55" height="6.55"/><rect x="814.44" y="450.49" width="6.55" height="6.55"/><rect x="830.53" y="450.53" width="6.48" height="6.48"/><rect x="846.55" y="450.49" width="6.55" height="6.55"/><rect x="862.65" y="450.53" width="6.48" height="6.48"/><rect x="878.67" y="450.49" width="6.55" height="6.55"/><rect x="897.25" y="453.01" width="1.51" height="1.51"/><rect x="1135.7" y="450.59" width="6.35" height="6.36"/><rect x="1152.35" y="451.19" width="5.16" height="5.16"/><rect x="1170.2" y="452.98" width="1.58" height="1.58"/><rect x="1217.05" y="451.66" width="4.24" height="4.21"/><rect x="1233.31" y="451.84" width="3.85" height="3.85"/><rect x="1283.37" y="453.73" width="0.05" height="0.07"/><rect x="271.65" y="469.77" width="0.12" height="0.12"/><rect x="284.53" y="466.59" width="6.48" height="6.48"/><rect x="300.55" y="466.55" width="6.55" height="6.55"/><rect x="316.62" y="466.55" width="6.55" height="6.55"/><rect x="332.71" y="466.59" width="6.48" height="6.48"/><rect x="348.76" y="466.59" width="6.48" height="6.48"/><rect x="364.78" y="466.55" width="6.55" height="6.55"/><rect x="380.85" y="466.55" width="6.55" height="6.55"/><rect x="396.9" y="466.55" width="6.55" height="6.55"/><rect x="413.21" y="466.81" width="6.06" height="6.04"/><rect x="718.11" y="466.59" width="6.48" height="6.48"/><rect x="734.16" y="466.59" width="6.5" height="6.48"/><rect x="750.23" y="466.59" width="6.48" height="6.48"/><rect x="766.25" y="466.55" width="6.55" height="6.55"/><rect x="782.32" y="466.55" width="6.55" height="6.55"/><rect x="798.37" y="466.55" width="6.55" height="6.55"/><rect x="814.44" y="466.55" width="6.55" height="6.55"/><rect x="830.53" y="466.59" width="6.48" height="6.48"/><rect x="846.55" y="466.55" width="6.55" height="6.55"/><rect x="862.6" y="466.55" width="6.55" height="6.55"/><rect x="881.37" y="469.26" width="1.14" height="1.14"/><rect x="1138.5" y="469.45" width="0.75" height="0.76"/><rect x="1151.67" y="466.55" width="6.55" height="6.55"/><rect x="1170.42" y="469.26" width="1.14" height="1.14"/><rect x="1199.91" y="466.61" width="6.43" height="6.43"/><rect x="1215.93" y="466.59" width="6.48" height="6.48"/><rect x="1232.07" y="466.68" width="6.31" height="6.31"/><rect x="1251.16" y="469.7" width="0.24" height="0.26"/><rect x="1266.72" y="469.19" width="1.27" height="1.27"/><rect x="1283.28" y="469.7" width="0.24" height="0.26"/><rect x="268.94" y="483.12" width="5.55" height="5.54"/><rect x="284.5" y="482.61" width="6.55" height="6.55"/><rect x="300.55" y="482.61" width="6.55" height="6.55"/><rect x="316.64" y="482.65" width="6.5" height="6.48"/><rect x="332.66" y="482.61" width="6.55" height="6.55"/><rect x="348.74" y="482.61" width="6.55" height="6.55"/><rect x="364.78" y="482.61" width="6.55" height="6.55"/><rect x="380.85" y="482.61" width="6.55" height="6.55"/><rect x="396.9" y="482.61" width="6.55" height="6.55"/><rect x="413.09" y="482.73" width="6.31" height="6.31"/><rect x="429.01" y="482.61" width="6.55" height="6.55"/><rect x="446.71" y="484.25" width="3.29" height="3.26"/><rect x="718.08" y="482.61" width="6.55" height="6.55"/><rect x="734.16" y="482.65" width="6.5" height="6.48"/><rect x="750.2" y="482.61" width="6.55" height="6.55"/><rect x="766.25" y="482.61" width="6.55" height="6.55"/><rect x="782.32" y="482.61" width="6.55" height="6.55"/><rect x="798.37" y="482.61" width="6.55" height="6.55"/><rect x="814.48" y="482.67" width="6.43" height="6.43"/><rect x="830.48" y="482.61" width="6.55" height="6.55"/><rect x="846.55" y="482.61" width="6.55" height="6.55"/><rect x="865.84" y="485.85" width="0.07" height="0.07"/><rect x="1153.33" y="484.28" width="3.21" height="3.21"/><rect x="1167.71" y="482.61" width="6.55" height="6.55"/><rect x="1200.37" y="483.15" width="5.48" height="5.48"/><rect x="1215.9" y="482.61" width="6.55" height="6.55"/><rect x="1248.02" y="482.61" width="6.55" height="6.55"/><rect x="1267.28" y="485.82" width="0.12" height="0.12"/><rect x="1299.42" y="485.85" width="0.07" height="0.07"/><rect x="1314.35" y="484.72" width="2.34" height="2.34"/><rect x="1330.54" y="484.85" width="2.07" height="2.07"/><rect x="1347.36" y="485.6" width="0.56" height="0.56"/><rect x="1379.63" y="485.76" width="0.24" height="0.25"/><rect x="1411.84" y="485.85" width="0.07" height="0.07"/><rect x="268.51" y="498.73" width="6.43" height="6.43"/><rect x="284.5" y="498.67" width="6.55" height="6.55"/><rect x="300.55" y="498.67" width="6.55" height="6.55"/><rect x="316.62" y="498.67" width="6.55" height="6.55"/><rect x="332.66" y="498.67" width="6.55" height="6.55"/><rect x="348.74" y="498.67" width="6.55" height="6.55"/><rect x="364.78" y="498.67" width="6.55" height="6.55"/><rect x="380.85" y="498.67" width="6.55" height="6.55"/><rect x="396.9" y="498.67" width="6.55" height="6.55"/><rect x="412.97" y="498.67" width="6.55" height="6.55"/><rect x="429.01" y="498.67" width="6.55" height="6.55"/><rect x="445.08" y="498.67" width="6.55" height="6.55"/><rect x="461.15" y="498.67" width="6.53" height="6.55"/><rect x="477.3" y="498.77" width="6.36" height="6.36"/><rect x="734.13" y="498.67" width="6.55" height="6.55"/><rect x="750.2" y="498.67" width="6.55" height="6.55"/><rect x="766.25" y="498.67" width="6.55" height="6.55"/><rect x="782.32" y="498.67" width="6.55" height="6.55"/><rect x="798.37" y="498.67" width="6.55" height="6.55"/><rect x="814.44" y="498.67" width="6.55" height="6.55"/><rect x="830.48" y="498.67" width="6.55" height="6.55"/><rect x="846.55" y="498.67" width="6.55" height="6.55"/><rect x="1170.78" y="501.72" width="0.44" height="0.44"/><rect x="1249.87" y="500.53" width="2.82" height="2.83"/><rect x="1315.46" y="501.88" width="0.12" height="0.12"/><rect x="1331.34" y="501.7" width="0.49" height="0.5"/><rect x="1344.37" y="498.67" width="6.55" height="6.55"/><rect x="1360.42" y="498.67" width="6.55" height="6.55"/><rect x="1379.7" y="501.88" width="0.12" height="0.12"/><rect x="1395.48" y="501.6" width="0.68" height="0.68"/><rect x="284.53" y="514.76" width="6.48" height="6.49"/><rect x="300.55" y="514.73" width="6.55" height="6.55"/><rect x="316.62" y="514.73" width="6.55" height="6.55"/><rect x="332.66" y="514.73" width="6.55" height="6.55"/><rect x="348.74" y="514.73" width="6.55" height="6.55"/><rect x="364.78" y="514.73" width="6.55" height="6.55"/><rect x="380.85" y="514.73" width="6.55" height="6.55"/><rect x="396.9" y="514.73" width="6.55" height="6.55"/><rect x="412.97" y="514.73" width="6.55" height="6.55"/><rect x="429.01" y="514.73" width="6.55" height="6.55"/><rect x="445.08" y="514.73" width="6.55" height="6.55"/><rect x="461.15" y="514.73" width="6.53" height="6.55"/><rect x="477.2" y="514.73" width="6.55" height="6.55"/><rect x="734.13" y="514.73" width="6.55" height="6.55"/><rect x="750.23" y="514.76" width="6.48" height="6.49"/><rect x="766.3" y="514.76" width="6.48" height="6.49"/><rect x="782.32" y="514.73" width="6.55" height="6.55"/><rect x="798.37" y="514.73" width="6.55" height="6.55"/><rect x="814.95" y="515.24" width="5.53" height="5.54"/><rect x="830.48" y="514.73" width="6.55" height="6.55"/><rect x="846.55" y="514.73" width="6.55" height="6.55"/><rect x="1202.78" y="517.66" width="0.68" height="0.69"/><rect x="1217.92" y="516.75" width="2.51" height="2.51"/><rect x="1234.09" y="516.87" width="2.27" height="2.27"/><rect x="1250.4" y="517.13" width="1.76" height="1.75"/><rect x="1267.16" y="517.82" width="0.39" height="0.38"/><rect x="1283.35" y="517.94" width="0.12" height="0.12"/><rect x="1299.42" y="517.97" width="0.07" height="0.07"/><rect x="1345.34" y="515.7" width="4.6" height="4.6"/><rect x="1363.53" y="517.84" width="0.31" height="0.32"/><rect x="1376.78" y="515.01" width="5.97" height="5.99"/><rect x="1427.59" y="517.66" width="0.68" height="0.69"/><rect x="1443.88" y="517.91" width="0.19" height="0.19"/><rect x="287.59" y="533.88" width="0.37" height="0.38"/><rect x="300.55" y="530.79" width="6.55" height="6.55"/><rect x="316.64" y="530.82" width="6.5" height="6.49"/><rect x="332.71" y="530.82" width="6.48" height="6.49"/><rect x="348.76" y="530.82" width="6.48" height="6.49"/><rect x="364.78" y="530.79" width="6.55" height="6.55"/><rect x="380.85" y="530.79" width="6.55" height="6.55"/><rect x="396.9" y="530.79" width="6.55" height="6.55"/><rect x="412.97" y="530.79" width="6.55" height="6.55"/><rect x="429.01" y="530.79" width="6.55" height="6.55"/><rect x="445.08" y="530.79" width="6.55" height="6.55"/><rect x="461.15" y="530.79" width="6.53" height="6.55"/><rect x="477.2" y="530.79" width="6.55" height="6.55"/><rect x="734.13" y="530.79" width="6.55" height="6.55"/><rect x="750.2" y="530.79" width="6.55" height="6.55"/><rect x="766.3" y="530.82" width="6.48" height="6.49"/><rect x="782.32" y="530.79" width="6.55" height="6.55"/><rect x="798.37" y="530.79" width="6.55" height="6.55"/><rect x="814.44" y="530.79" width="6.55" height="6.55"/><rect x="831.19" y="531.48" width="5.16" height="5.16"/><rect x="846.55" y="530.79" width="6.55" height="6.55"/><rect x="1251.16" y="533.94" width="0.24" height="0.26"/><rect x="1267.06" y="533.78" width="0.56" height="0.57"/><rect x="1363.63" y="534" width="0.12" height="0.12"/><rect x="1379.7" y="534" width="0.12" height="0.12"/><rect x="1395.06" y="533.3" width="1.51" height="1.51"/><rect x="300.55" y="546.84" width="6.55" height="6.55"/><rect x="316.62" y="546.84" width="6.55" height="6.55"/><rect x="332.66" y="546.84" width="6.55" height="6.55"/><rect x="348.74" y="546.84" width="6.55" height="6.55"/><rect x="364.83" y="546.88" width="6.48" height="6.49"/><rect x="380.85" y="546.84" width="6.55" height="6.55"/><rect x="396.9" y="546.84" width="6.55" height="6.55"/><rect x="412.97" y="546.84" width="6.55" height="6.55"/><rect x="429.01" y="546.84" width="6.55" height="6.55"/><rect x="445.08" y="546.84" width="6.55" height="6.55"/><rect x="461.15" y="546.84" width="6.53" height="6.55"/><rect x="734.13" y="546.84" width="6.55" height="6.55"/><rect x="750.2" y="546.84" width="6.55" height="6.55"/><rect x="766.32" y="546.9" width="6.43" height="6.43"/><rect x="782.32" y="546.84" width="6.55" height="6.55"/><rect x="798.37" y="546.84" width="6.55" height="6.55"/><rect x="814.44" y="546.84" width="6.55" height="6.55"/><rect x="830.7" y="547.06" width="6.11" height="6.11"/><rect x="846.55" y="546.84" width="6.55" height="6.55"/><rect x="897.54" y="549.64" width="0.93" height="0.95"/><rect x="1296.18" y="546.84" width="6.55" height="6.55"/><rect x="1312.25" y="546.84" width="6.55" height="6.55"/><rect x="1347.51" y="550" width="0.24" height="0.25"/><rect x="1363.68" y="550.09" width="0.05" height="0.06"/><rect x="317.42" y="563.72" width="4.92" height="4.92"/><rect x="332.66" y="562.9" width="6.55" height="6.55"/><rect x="348.74" y="562.9" width="6.55" height="6.55"/><rect x="364.78" y="562.9" width="6.55" height="6.55"/><rect x="380.88" y="562.94" width="6.5" height="6.49"/><rect x="396.9" y="562.9" width="6.55" height="6.55"/><rect x="412.97" y="562.9" width="6.55" height="6.55"/><rect x="429.01" y="562.9" width="6.55" height="6.55"/><rect x="445.08" y="562.9" width="6.55" height="6.55"/><rect x="461.15" y="562.9" width="6.53" height="6.55"/><rect x="734.13" y="562.9" width="6.55" height="6.55"/><rect x="750.2" y="562.9" width="6.55" height="6.55"/><rect x="766.25" y="562.9" width="6.55" height="6.55"/><rect x="782.32" y="562.9" width="6.55" height="6.55"/><rect x="798.39" y="562.94" width="6.5" height="6.49"/><rect x="814.44" y="562.9" width="6.55" height="6.55"/><rect x="830.53" y="562.94" width="6.48" height="6.49"/><rect x="847.19" y="563.53" width="5.28" height="5.28"/><rect x="880.15" y="564.39" width="3.58" height="3.59"/><rect x="894.71" y="562.9" width="6.55" height="6.55"/><rect x="1264.09" y="562.94" width="6.5" height="6.49"/><rect x="1280.13" y="562.9" width="6.55" height="6.55"/><rect x="1296.18" y="562.9" width="6.55" height="6.55"/><rect x="1312.25" y="562.9" width="6.55" height="6.55"/><rect x="1330.25" y="564.86" width="2.65" height="2.64"/><rect x="1344.83" y="563.38" width="5.6" height="5.61"/><rect x="1361.36" y="563.85" width="4.65" height="4.66"/><rect x="1475.97" y="566.05" width="0.27" height="0.26"/><rect x="1523.65" y="565.56" width="1.27" height="1.25"/><rect x="332.71" y="579" width="6.48" height="6.49"/><rect x="348.74" y="578.96" width="6.55" height="6.55"/><rect x="364.78" y="578.96" width="6.55" height="6.55"/><rect x="380.85" y="578.96" width="6.55" height="6.55"/><rect x="396.9" y="578.96" width="6.55" height="6.55"/><rect x="412.97" y="578.96" width="6.55" height="6.55"/><rect x="429.01" y="578.96" width="6.55" height="6.55"/><rect x="445.08" y="578.96" width="6.55" height="6.55"/><rect x="461.15" y="578.96" width="6.53" height="6.55"/><rect x="734.13" y="578.96" width="6.55" height="6.55"/><rect x="750.2" y="578.96" width="6.55" height="6.55"/><rect x="766.25" y="578.96" width="6.55" height="6.55"/><rect x="782.32" y="578.96" width="6.55" height="6.55"/><rect x="798.37" y="578.96" width="6.55" height="6.55"/><rect x="814.44" y="578.96" width="6.55" height="6.55"/><rect x="831.11" y="579.59" width="5.29" height="5.28"/><rect x="879.45" y="579.75" width="4.99" height="4.98"/><rect x="895.44" y="579.69" width="5.11" height="5.1"/><rect x="1234.43" y="581.44" width="1.58" height="1.58"/><rect x="1248.02" y="578.96" width="6.55" height="6.55"/><rect x="1264.06" y="578.96" width="6.55" height="6.55"/><rect x="1280.13" y="578.96" width="6.55" height="6.55"/><rect x="1296.18" y="578.96" width="6.55" height="6.55"/><rect x="1312.25" y="578.96" width="6.55" height="6.55"/><rect x="1328.3" y="578.96" width="6.55" height="6.55"/><rect x="1344.37" y="578.96" width="6.55" height="6.55"/><rect x="1360.42" y="578.96" width="6.55" height="6.55"/><rect x="1379.7" y="582.17" width="0.12" height="0.12"/><rect x="332.66" y="595.02" width="6.55" height="6.55"/><rect x="348.76" y="595.05" width="6.48" height="6.49"/><rect x="364.78" y="595.02" width="6.55" height="6.55"/><rect x="380.85" y="595.02" width="6.55" height="6.55"/><rect x="396.95" y="595.05" width="6.48" height="6.49"/><rect x="412.97" y="595.02" width="6.55" height="6.55"/><rect x="429.01" y="595.02" width="6.55" height="6.55"/><rect x="445.08" y="595.02" width="6.55" height="6.55"/><rect x="463.98" y="597.85" width="0.88" height="0.88"/><rect x="736.01" y="596.88" width="2.82" height="2.84"/><rect x="750.2" y="595.02" width="6.55" height="6.55"/><rect x="766.25" y="595.02" width="6.55" height="6.55"/><rect x="782.32" y="595.02" width="6.55" height="6.55"/><rect x="798.39" y="595.05" width="6.5" height="6.49"/><rect x="814.46" y="595.05" width="6.48" height="6.49"/><rect x="832.04" y="596.56" width="3.46" height="3.46"/><rect x="878.67" y="595.02" width="6.55" height="6.55"/><rect x="1215.9" y="595.02" width="6.55" height="6.55"/><rect x="1231.95" y="595.02" width="6.55" height="6.55"/><rect x="1248.02" y="595.02" width="6.55" height="6.55"/><rect x="1264.06" y="595.02" width="6.55" height="6.55"/><rect x="1280.13" y="595.02" width="6.55" height="6.55"/><rect x="1296.18" y="595.02" width="6.55" height="6.55"/><rect x="1312.25" y="595.02" width="6.55" height="6.55"/><rect x="1328.3" y="595.02" width="6.55" height="6.55"/><rect x="1344.37" y="595.02" width="6.55" height="6.55"/><rect x="1360.42" y="595.02" width="6.55" height="6.55"/><rect x="1377.51" y="596.06" width="4.48" height="4.47"/><rect x="1459.98" y="598.23" width="0.12" height="0.12"/><rect x="332.66" y="611.08" width="6.55" height="6.55"/><rect x="348.74" y="611.08" width="6.55" height="6.55"/><rect x="364.78" y="611.08" width="6.55" height="6.55"/><rect x="380.85" y="611.08" width="6.55" height="6.55"/><rect x="396.9" y="611.08" width="6.55" height="6.55"/><rect x="412.97" y="611.08" width="6.55" height="6.55"/><rect x="429.01" y="611.08" width="6.55" height="6.55"/><rect x="736.91" y="613.85" width="1" height="1.01"/><rect x="750.2" y="611.08" width="6.55" height="6.55"/><rect x="766.25" y="611.08" width="6.55" height="6.55"/><rect x="782.34" y="611.11" width="6.5" height="6.49"/><rect x="798.37" y="611.08" width="6.55" height="6.55"/><rect x="814.46" y="611.11" width="6.48" height="6.49"/><rect x="879.57" y="611.99" width="4.72" height="4.72"/><rect x="1202.97" y="614.23" width="0.27" height="0.26"/><rect x="1215.9" y="611.08" width="6.55" height="6.55"/><rect x="1231.95" y="611.08" width="6.55" height="6.55"/><rect x="1248.02" y="611.08" width="6.55" height="6.55"/><rect x="1264.06" y="611.08" width="6.55" height="6.55"/><rect x="1280.13" y="611.08" width="6.55" height="6.55"/><rect x="1296.18" y="611.08" width="6.55" height="6.55"/><rect x="1312.25" y="611.08" width="6.55" height="6.55"/><rect x="1328.3" y="611.08" width="6.55" height="6.55"/><rect x="1344.37" y="611.08" width="6.55" height="6.55"/><rect x="1360.42" y="611.08" width="6.55" height="6.55"/><rect x="1376.48" y="611.08" width="6.55" height="6.55"/><rect x="1395.74" y="614.29" width="0.12" height="0.12"/><rect x="332.71" y="627.17" width="6.48" height="6.49"/><rect x="348.74" y="627.13" width="6.55" height="6.55"/><rect x="364.78" y="627.13" width="6.55" height="6.55"/><rect x="380.85" y="627.13" width="6.55" height="6.55"/><rect x="396.9" y="627.13" width="6.55" height="6.55"/><rect x="412.97" y="627.13" width="6.55" height="6.55"/><rect x="429.01" y="627.13" width="6.55" height="6.55"/><rect x="750.2" y="627.13" width="6.55" height="6.55"/><rect x="766.25" y="627.13" width="6.55" height="6.55"/><rect x="782.32" y="627.13" width="6.55" height="6.55"/><rect x="798.39" y="627.17" width="6.5" height="6.49"/><rect x="814.78" y="627.49" width="5.87" height="5.85"/><rect x="1202.63" y="629.95" width="0.95" height="0.94"/><rect x="1215.9" y="627.13" width="6.55" height="6.55"/><rect x="1231.95" y="627.13" width="6.55" height="6.55"/><rect x="1248.02" y="627.13" width="6.55" height="6.55"/><rect x="1264.06" y="627.13" width="6.55" height="6.55"/><rect x="1280.13" y="627.13" width="6.55" height="6.55"/><rect x="1296.18" y="627.13" width="6.55" height="6.55"/><rect x="1312.25" y="627.13" width="6.55" height="6.55"/><rect x="1328.3" y="627.13" width="6.55" height="6.55"/><rect x="1344.37" y="627.13" width="6.55" height="6.55"/><rect x="1360.42" y="627.13" width="6.55" height="6.55"/><rect x="1376.48" y="627.13" width="6.55" height="6.55"/><rect x="332.71" y="643.23" width="6.48" height="6.49"/><rect x="348.74" y="643.19" width="6.55" height="6.55"/><rect x="364.78" y="643.19" width="6.55" height="6.55"/><rect x="380.85" y="643.19" width="6.55" height="6.55"/><rect x="396.9" y="643.19" width="6.55" height="6.55"/><rect x="412.97" y="643.19" width="6.55" height="6.55"/><rect x="431.98" y="646.16" width="0.63" height="0.62"/><rect x="750.76" y="643.76" width="5.41" height="5.42"/><rect x="766.25" y="643.19" width="6.55" height="6.55"/><rect x="782.32" y="643.19" width="6.55" height="6.55"/><rect x="798.37" y="643.19" width="6.55" height="6.55"/><rect x="1202.9" y="646.25" width="0.44" height="0.44"/><rect x="1215.9" y="643.19" width="6.55" height="6.55"/><rect x="1231.95" y="643.19" width="6.55" height="6.55"/><rect x="1248.02" y="643.19" width="6.55" height="6.55"/><rect x="1264.89" y="644.02" width="4.92" height="4.9"/><rect x="1280.13" y="643.19" width="6.55" height="6.55"/><rect x="1296.18" y="643.19" width="6.55" height="6.55"/><rect x="1312.25" y="643.19" width="6.55" height="6.55"/><rect x="1328.3" y="643.19" width="6.55" height="6.55"/><rect x="1344.37" y="643.19" width="6.55" height="6.55"/><rect x="1360.42" y="643.19" width="6.55" height="6.55"/><rect x="1379.72" y="646.44" width="0.07" height="0.06"/><rect x="334" y="660.58" width="3.9" height="3.91"/><rect x="348.74" y="659.26" width="6.55" height="6.54"/><rect x="364.78" y="659.26" width="6.55" height="6.54"/><rect x="380.85" y="659.26" width="6.55" height="6.54"/><rect x="398.8" y="661.15" width="2.78" height="2.76"/><rect x="415.16" y="661.46" width="2.14" height="2.14"/><rect x="753.37" y="662.44" width="0.19" height="0.18"/><rect x="769.46" y="662.46" width="0.12" height="0.13"/><rect x="1200.34" y="659.76" width="5.53" height="5.54"/><rect x="1298.71" y="661.77" width="1.51" height="1.51"/><rect x="1312.25" y="659.26" width="6.55" height="6.54"/><rect x="1328.3" y="659.26" width="6.55" height="6.54"/><rect x="1344.37" y="659.26" width="6.55" height="6.54"/><rect x="1363.68" y="662.5" width="0.05" height="0.06"/><rect x="1459.88" y="662.37" width="0.32" height="0.32"/><rect x="332.98" y="675.62" width="5.92" height="5.93"/><rect x="348.74" y="675.31" width="6.55" height="6.55"/><rect x="364.78" y="675.31" width="6.55" height="6.55"/><rect x="380.85" y="675.31" width="6.55" height="6.55"/><rect x="396.9" y="675.31" width="6.55" height="6.55"/><rect x="1312.25" y="675.31" width="6.55" height="6.55"/><rect x="1328.3" y="675.31" width="6.55" height="6.55"/><rect x="1344.37" y="675.31" width="6.55" height="6.55"/><rect x="1459.22" y="677.77" width="1.66" height="1.64"/><rect x="335.51" y="694.21" width="0.88" height="0.89"/><rect x="348.76" y="691.4" width="6.48" height="6.49"/><rect x="364.78" y="691.38" width="6.55" height="6.54"/><rect x="380.85" y="691.38" width="6.55" height="6.54"/><rect x="1458.13" y="692.73" width="3.85" height="3.83"/><rect x="349.78" y="708.47" width="4.46" height="4.47"/><rect x="364.78" y="707.44" width="6.55" height="6.54"/><rect x="382.82" y="709.41" width="2.58" height="2.59"/><rect x="1313.18" y="708.37" width="4.68" height="4.66"/><rect x="1424.72" y="707.5" width="6.43" height="6.42"/><rect x="349.71" y="724.47" width="4.6" height="4.59"/><rect x="364.78" y="723.5" width="6.55" height="6.54"/><rect x="1395.43" y="726.39" width="0.75" height="0.75"/><rect x="1411.72" y="726.61" width="0.32" height="0.32"/><rect x="351.88" y="742.7" width="0.24" height="0.25"/><rect x="364.78" y="739.55" width="6.55" height="6.54"/><rect x="382.8" y="741.5" width="2.65" height="2.64"/><rect x="365.37" y="756.17" width="5.4" height="5.42"/><rect x="382.78" y="757.52" width="2.7" height="2.72"/><rect x="415.96" y="758.6" width="0.56" height="0.57"/><rect x="432.01" y="758.6" width="0.56" height="0.57"/><rect x="383.29" y="774.09" width="1.68" height="1.69"/><rect x="398.53" y="773.3" width="3.29" height="3.28"/></g></g></svg>