<svg height='100px' width='100px'  fill="#000000" xmlns="http://www.w3.org/2000/svg" xmlns:xlink="http://www.w3.org/1999/xlink" version="1.1" x="0px" y="0px" viewBox="10 10 64 64" style="enable-background:new 0 0 100 100;" xml:space="preserve"><path d="M84.4028397,49.5259933c-0.0964355-0.0675049-0.2041626-0.119873-0.3097534-0.1731567  c-1.7050781-0.8607178-3.5494995-1.2481689-5.4206543-1.4268799c-2.0300903-0.1939087-4.0747681-0.2402954-6.1141357-0.3264771  c-0.3605347-0.0152588-0.5103149-0.1436157-0.6224976-0.4776611c-0.3573608-1.0640869-0.7189331-2.1293945-1.1445312-3.1672363  c-0.8712158-2.1245728-2.3724365-3.5234985-4.680481-4.0039062c-1.3744507-0.2860718-2.7351074-0.6434326-4.0935669-1.0003662  c-2.7075806-0.7114868-5.1627197-1.9726562-7.4771729-3.5196533c-2.3417969-1.5652466-4.7966919-2.7985229-7.4983521-3.3268433  v-0.0621338c0,0-5.3065796-0.9545898-6.8731079-0.6935425c-0.006958,0.0011597-0.0117798,0.0042114-0.0187378,0.0054321  c-0.0614014,0.0023804-0.1237183-0.0029297-0.1845703,0.0040894c-0.9894409,0.1143799-1.9567261,0.4155273-2.9365234,0.6224976  c-0.1676636,0.0354004-0.4105835,0.0678711-0.5183105-0.0206299c-1.1808472-0.9691162-2.6133423-1.2196045-4.0429688-1.2481689  c-1.5180054-0.0303345-3.0552979,0.0877686-4.5582886,0.3132935c-2.2503662,0.3377075-4.5384102,0.5874557-6.7131348,1.2613525  c-4.3210449,1.3389893-6.0003061,3.065918-6.3690805,3.6071167c-1.114563,1.6355591-0.8911133,2.9815674,0.5458984,4.6431885  c0.6025391,0.6966553,1.2797251,0.8247681,2.0944223,0.6779175c0.2166748-0.0391235,0.4352417-0.1045532,0.6339722-0.1981812  c0.3028564-0.1427002,0.4656982-0.0385132,0.5919189,0.2412109c0.4135132,0.916626,0.9061279,1.8040771,1.2427979,2.7474976  c1.0479126,2.9364014,2.0789795,5.880249,3.0323486,8.8482666c0.4317627,1.3441162,0.7609253,2.7387085,0.9550171,4.1355591  c0.1331787,0.9581909,0.4050903,1.7667847,1.062439,2.4622803c0.402832,0.4262695,0.3725586,0.9874878-0.1154175,1.3345947  c-0.3556519,0.2529907-0.3917847,0.5130615-0.2300415,0.8640137c0.1114502,0.2417603,0.2466431,0.4749146,0.3334961,0.7249756  c0.1721802,0.4956665,0.3084106,1.0037842,0.4810181,1.4992676c0.0534058,0.1531982,0.1452026,0.3297729,0.2731323,0.4136963  c0.5167847,0.3391113,1.1376953,0.2944946,1.6147461,0.0634155c0.225647-0.109314,0.2028198-0.7374878,0.2844238-1.1322632  c0.0143433-0.0690918,0.0074463-0.1555786-0.0221558-0.218811c-0.2348633-0.5023193-0.0042725-0.8113403,0.387207-1.1171265  c0.5566406-0.4348755,0.4873657-0.9695435-0.1577148-1.2515869c-0.3273315-0.1430664-0.4295044-0.3545532-0.3516235-0.6596069  c0.0899048-0.3520508,0.3876343-0.1962891,0.5946045-0.1762695c1.4584351,0.1410522,30.8228149,3.1086426,33.2231445,3.352356  c1.3839722,0.1404419,2.7680664,0.2800903,4.1503296,0.4356079c0.1578979,0.0178223,0.364502,0.0948486,0.4462891,0.2143555  c0.4272461,0.6242676,0.3262329,1.0130615-0.3162842,1.3806763c-0.5447388,0.3117065-0.5779419,0.9327393-0.0645752,1.3366089  c0.1026611,0.0808105,0.2276611,0.1374512,0.3493652,0.1887207c0.2266235,0.0955811,0.3013306,0.21698,0.2213745,0.4824219  c-0.1010742,0.3353882-0.1549072,0.692627-0.1739502,1.043457c-0.034729,0.6392212,0.180542,0.9354248,0.8156738,1.0313721  c0.4466553,0.0674438,0.911377,0.0055542,1.3666382,0.0283813c0.3704834,0.0185547,0.5305786-0.1764526,0.6120605-0.4975586  c0.239563-0.944397,0.4936523-1.8852539,0.7208862-2.8326416c0.1271362-0.5300903,0.0167847-0.7947388-0.4893799-0.975708  c-0.5123901-0.1831665-0.3727417-0.5675659-0.3822632-0.9158325c-0.0098267-0.3573608,0.2915649-0.3659058,0.5252686-0.4237061  c3.6188965-0.8946533,7.2398071-1.7810059,10.8566895-2.6834106c0.2965698-0.0739746,0.4320679-0.0050049,0.5429077,0.2645264  c0.0811157,0.1970215,0.1873779,0.4760132,0.3473511,0.5315552c0.5639038,0.1958008,0.5643311,0.6087646,0.5239868,1.0695801  c-0.0283203,0.3240967-0.0782471,0.6495972-0.0661621,0.9725342c0.0057373,0.1548462,0.0943604,0.3505859,0.2114868,0.449707  c0.4679565,0.3960571,1.0222168,0.3283081,1.5579224,0.1881104c0.1700439-0.0444946,0.364624-0.1907349,0.4454956-0.3443604  c0.2623901-0.4988403,0.2653198-1.029541,0.0189209-1.5402222c-0.135498-0.2807617-0.0698242-0.4454956,0.2115479-0.5522461  c0.0961304-0.036499,0.185791-0.0914917,0.2759399-0.1424561c0.6986084-0.3951416,0.7067261-0.7612305,0.0274048-1.1902466  c-0.4292603-0.2711182-0.5056763-0.7559814-0.1266479-1.1071167c0.9630127-0.8920898,1.3276367-2.0192261,1.4332886-3.289917  c0.1065063-1.2807617,0.2505493-2.56073,0.4403076-3.8317261C86.017952,50.8600388,85.9129715,50.5835495,84.4028397,49.5259933z   M47.4950981,47.5014343c-0.5410156,0.1854858-7.6047707,1.9475327-8.7093239,2.1308823  c-1.1144409,0.1849976-2.1165161-0.1375122-2.8988647-0.9926147c-0.3892822-0.4254761-0.8008423-0.8423462-1.1196899-1.3184814  c-0.9871826-1.4744263-1.9960938-2.9400024-2.8818359-4.4752197c-0.6269932-1.0866852-1.5870247-2.994854-2.2638493-4.3664703  c-0.4385052-0.8886528,0.077734-1.9748077,1.0525761-2.1527863c0.0052605-0.0009613,0.0104389-0.0018883,0.0155334-0.0027771  c2.2438965-0.3925781,4.5053101-0.7015991,6.7294922-1.1834106l3.514534-0.7142296  c0.9103432-0.1850014,1.8462677,0.1665039,2.4051628,0.9085197c1.1528282,1.5305634,3.0658798,4.1407318,3.8562431,5.6406097  c0.6366577,1.2080688,1.3800125,2.3211327,1.8049316,3.6495361C49.4998245,46.1875534,48.9465141,47.0038147,47.4950981,47.5014343z  "></path></svg>