<svg height='100px' width='100px'  fill="#000000" xmlns="http://www.w3.org/2000/svg" viewBox="0 0 64 64" x="0px" y="0px"><g><path d="M28.507,35.374h0a.978.978,0,0,0-1.006,0,.992.992,0,0,0-.5.866V41a1,1,0,0,1-2,0V29.107a1.085,1.085,0,0,0-.825-1.093A1,1,0,0,0,23,29v8a1,1,0,0,1-2,0V27.107a1.085,1.085,0,0,0-.825-1.093A1,1,0,0,0,19,27V37a1,1,0,0,1-2,0V28a1,1,0,0,0-.353-.762,1.015,1.015,0,0,0-.823-.224A1.086,1.086,0,0,0,15,28.107V37a1,1,0,0,1-2,0V33a1,1,0,0,0-1.176-.986A1.086,1.086,0,0,0,11,33.107v6.074a15,15,0,0,0,.9,5.127l3.037,8.35A1,1,0,0,1,15,53v7H25V53a1,1,0,0,1,.132-.5l2.946-5.155A7.022,7.022,0,0,0,29,43.875V36.339A1.106,1.106,0,0,0,28.507,35.374Z"></path><path d="M54,22h6V4.181L43.9,6.866a48.985,48.985,0,0,1-13.782.327L4,4.125V22H14a1,1,0,0,1,0,2H4V41.875l5.144-.608A16.854,16.854,0,0,1,9,39.181V33.107a3.082,3.082,0,0,1,2.5-3.066,3.028,3.028,0,0,1,1.5.131V28.107a3.082,3.082,0,0,1,2.5-3.066,3,3,0,0,1,1.968.345,2.981,2.981,0,0,1,5.4.834,3.019,3.019,0,0,1,1.622-.179A3.082,3.082,0,0,1,27,29.107v4.3a2.982,2.982,0,0,1,2.5.235,3.091,3.091,0,0,1,1.5,2.7v2.38c.68-.068,1.348-.12,2-.156V36.339a3.091,3.091,0,0,1,1.495-2.7A2.97,2.97,0,0,1,37,33.406v-4.3a3.082,3.082,0,0,1,2.5-3.066,3.04,3.04,0,0,1,1.623.179A3.031,3.031,0,0,1,43.5,24.041a3,3,0,0,1,3.026,1.345,3,3,0,0,1,1.967-.345A3.082,3.082,0,0,1,51,28.107v2.065a3.027,3.027,0,0,1,1.5-.131A3.082,3.082,0,0,1,55,33.107v6.074a16.926,16.926,0,0,1-.1,1.79l5.1.849V24H54a1,1,0,0,1,0-2ZM10,29a2,2,0,0,0-2,2,1,1,0,0,1-2,0,4,4,0,0,1,4-4,1,1,0,0,1,0,2Zm11-5H18a1,1,0,0,1,0-2h3a1,1,0,0,1,0,2Zm8,4a1,1,0,0,1-1-1,3,3,0,0,0-3-3,1,1,0,0,1,0-2,5.006,5.006,0,0,1,5,5A1,1,0,0,1,29,28Zm10-4a3,3,0,0,0-3,3,1,1,0,0,1-2,0,5.006,5.006,0,0,1,5-5,1,1,0,0,1,0,2Zm15,2a4,4,0,0,1,4,4,1,1,0,0,1-2,0,2,2,0,0,0-2-2,1,1,0,0,1,0-2Z"></path><path d="M52.175,32.014A1,1,0,0,0,51,33v4a1,1,0,0,1-2,0V28.107a1.085,1.085,0,0,0-.825-1.093A1,1,0,0,0,47,28v9a1,1,0,0,1-2,0V27a1,1,0,0,0-1.176-.986A1.086,1.086,0,0,0,43,27.107V37a1,1,0,0,1-2,0V29a1,1,0,0,0-.353-.762,1.009,1.009,0,0,0-.823-.224A1.086,1.086,0,0,0,39,29.107V41a1,1,0,0,1-2,0V36.236a.992.992,0,0,0-.5-.866.978.978,0,0,0-1.006,0h0a1.106,1.106,0,0,0-.493.965v7.536a7.022,7.022,0,0,0,.922,3.474L38.868,52.5A1,1,0,0,1,39,53v7H49V53a1,1,0,0,1,.061-.342L52.1,44.307a14.986,14.986,0,0,0,.9-5.126V33.107A1.085,1.085,0,0,0,52.175,32.014Z"></path></g></svg>