<svg height='100px' width='100px'  fill="#000000" xmlns="http://www.w3.org/2000/svg" xmlns:xlink="http://www.w3.org/1999/xlink" version="1.1" x="0px" y="0px" viewBox="0 0 100 100" style="enable-background:new 0 0 100 100;" xml:space="preserve"><path d="M68.3,56.5c0,0-0.7,0.5-1.9,1.2c-0.2,3.4-0.8,8.2-2.7,13.3c2.2,0.9,3.7,2.4,4.3,4.3c1.5,4.8-2.9,11.2-4.9,13.7  c0.1,0.2,0.2,0.5,0.2,0.7c0,0.8-0.6,1.4-1.4,1.4c-0.8,0-1.4-0.6-1.4-1.4s0.6-1.4,1.4-1.4c0.2,0,0.3,0,0.5,0.1  c1.8-2.4,6.1-8.5,4.7-12.8c-0.6-2.1-2.5-3.5-5.5-4.3s-5.3-0.4-6.9,1.1c-3.3,3.2-2.4,11-1.9,13.8l0,0c0.8,0,1.4,0.6,1.4,1.4  S53.6,89,52.8,89s-1.4-0.6-1.4-1.4c0-0.4,0.2-0.8,0.5-1c-0.5-2.8-1.6-11.2,2.2-14.8c1.8-1.7,4.4-2.2,7.7-1.3  c0.4,0.1,0.7,0.2,1.1,0.3c1.7-4.8,2.4-9.2,2.6-12.5c-3.2,1.7-8.8,4.1-15.4,4.1c-6.6-0.1-12.3-2.5-15.5-4.2c0,4.6,0.8,11.2,4.2,17.4  c0.8-0.4,1.7-0.6,2.6-0.5c2.5,0.2,4.4,2.5,4.2,5s-2.5,4.4-5,4.2c-2.5-0.2-4.4-2.5-4.2-5c0.1-1.3,0.7-2.4,1.6-3.1  c-3.6-6.7-4.4-13.7-4.4-18.5c-1.2-0.7-1.8-1.1-1.8-1.1c-11.7,0-21.2,3-21.2,14.6v15.7c-0.2,0.1,17.5,9,39.3,8.1  c25.8-1.1,39.3-8.1,39.3-8.1V71.1C89.4,59.4,79.9,56.5,68.3,56.5z"></path><path d="M53,15.5h-1.7v-1.7c0-0.2-0.2-0.4-0.4-0.4h-1.5c-0.2,0-0.4,0.2-0.4,0.4v1.7h-1.7c-0.2,0-0.4,0.2-0.4,0.4v1.5  c0,0.2,0.2,0.4,0.4,0.4H49v1.7c0,0.2,0.2,0.4,0.4,0.4h1.5c0.2,0,0.4-0.2,0.4-0.4v-1.7H53c0.2,0,0.4-0.2,0.4-0.4v-1.5  C53.3,15.6,53.2,15.5,53,15.5z"></path><path d="M63.7,17.5l0.6-4c0.1-0.2,0-0.3-0.2-0.4c0,0-1.6-0.6-3.8-1.2l0.7-4.7c0-0.2-0.1-0.3-0.2-0.4c-0.3-0.1-5.6-2.2-10.7-2.2  c-5.1,0-10.5,2.1-10.7,2.2c-0.2,0.1-0.3,0.2-0.2,0.4l0.7,4.7c-2.3,0.6-3.8,1.2-3.8,1.2c-0.2,0.1-0.3,0.3-0.3,0.4l0.6,4  c-4.1,4.1-6.7,9.9-6.7,16.5c0,12.3,9.1,22.3,20.3,22.3c11.2,0,20.3-10,20.3-22.3C70.4,27.4,67.8,21.5,63.7,17.5z M50.1,5.3  c4.3,0,9,1.6,10.2,2l-0.7,4.3c-2.7-0.7-6.1-1.4-9.5-1.4c-3.3,0-6.8,0.7-9.5,1.4L40,7.3C41.1,6.9,45.8,5.3,50.1,5.3z M50.1,11  c5.8,0,12.1,2.2,13.5,2.7l-1.5,9.5c-1.5-0.4-6.6-1.7-12-1.7c-5.4,0-10.6,1.3-12,1.7l-1.5-9.5C38,13.1,44.3,11,50.1,11z"></path></svg>