<svg height='100px' width='100px'  fill="#000000" xmlns="http://www.w3.org/2000/svg" xmlns:xlink="http://www.w3.org/1999/xlink" version="1.1" preserveAspectRatio="none" x="0px" y="0px" viewBox="0 0 100 100"><defs><g id="a"><path fill="#000000" stroke="none" d=" M 86.75 -2.4 L 67.9 -2.4 67.9 1.75 68.95 1.75 Q 70.2 1.75 71.2 2.8 72.05 3.8 72.05 5.25 72.05 6.55 71.2 7.65 70.2 8.6 68.95 8.6 L 67.9 8.6 67.9 13.35 69.4 13.35 Q 70.85 13.35 71.9 14.55 72.9 15.65 72.9 17.3 72.9 18.85 71.9 20.05 70.85 21.1 69.4 21.1 L 67.9 21.1 67.9 26.05 70.4 26.05 Q 71.75 26.05 72.9 27.2 73.9 28.25 73.9 30 73.9 31.55 72.9 32.75 71.9 33.75 70.4 33.75 L 67.9 33.75 67.9 39.05 70.75 39.05 Q 72.2 39.05 73.45 40.2 74.5 41.25 74.5 43.05 74.5 44.85 73.45 45.95 72.2 47.1 70.75 47.1 L 67.9 47.1 67.9 52 71.1 52 Q 72.75 52 73.95 53.35 75.05 54.5 75.05 56.5 75.05 58.35 73.95 59.6 72.65 60.9 71.1 60.9 L 67.9 60.9 67.9 65.35 70.1 65.35 Q 71.65 65.35 72.95 66.6 74.05 67.95 74.05 69.75 74.05 71.5 72.95 72.95 71.65 74.1 70.1 74.1 L 67.9 74.1 67.9 78.75 69.6 78.75 Q 71 78.75 72.15 80 73.15 81.15 73.15 82.8 73.15 84.35 72.15 85.65 71 86.7 69.6 86.7 L 67.9 86.7 67.9 91.6 128.45 91.6 Q 127.901171875 83.9611328125 127.85 77.9 127.798046875 71.8833984375 129.75 62.05 131.605078125 52.7357421875 131.4 47.9 131.5400390625 40.81953125 126.55 31.6 121.3 21.9 106.6 18.5 L 101.8 17.5 Q 98.45 16.75 95.7 15.35 91.45 13.1 89 7.85 86.7802734375 3.114453125 86.75 -2.4 M 63.1 -2.4 L 44.65 -2.4 Q 44.6197265625 3.114453125 42.4 7.85 39.95 13.1 35.7 15.35 32.95 16.75 29.6 17.5 L 24.8 18.5 Q 10.1185546875 21.890234375 4.85 31.6 -0.171484375 40.85625 -0.05 47.95 -0.18984375 52.7564453125 1.65 62.05 3.6 71.9 3.55 77.95 3.5 83.95 2.9 91.6 L 63.1 91.6 63.1 86.7 61.6 86.7 Q 60.05 86.7 59.1 85.65 57.95 84.35 57.95 82.8 57.95 81.15 59.1 80 60.05 78.75 61.6 78.75 L 63.1 78.75 63.1 74.1 61.15 74.1 Q 59.5 74.1 58.35 72.95 57.15 71.5 57.15 69.75 57.15 67.95 58.35 66.6 59.5 65.35 61.15 65.35 L 63.1 65.35 63.1 60.9 60.15 60.9 Q 58.5 60.9 57.35 59.6 56.15 58.35 56.15 56.5 56.15 54.55 57.35 53.35 58.4 52 60.15 52 L 63.1 52 63.1 47.1 60.45 47.1 Q 58.9 47.1 57.9 45.95 56.7 44.75 56.7 43.05 56.7 41.3 57.9 40.2 58.9 39.05 60.45 39.05 L 63.1 39.05 63.1 33.75 60.7 33.75 Q 59.15 33.75 58.3 32.75 57.25 31.5 57.25 30 57.25 28.35 58.3 27.2 59.3 26.05 60.7 26.05 L 63.1 26.05 63.1 21.1 61.7 21.1 Q 60.25 21.1 59.3 20.05 58.25 18.85 58.25 17.3 58.25 15.65 59.3 14.55 60.25 13.35 61.7 13.35 L 63.1 13.35 63.1 8.6 62.1 8.6 Q 60.8 8.6 59.95 7.65 59 6.55 59 5.25 59 3.8 59.95 2.8 60.8 1.75 62.1 1.75 L 63.1 1.75 63.1 -2.4 Z"></path></g></defs><g transform="matrix( 0.6799774169921875, 0, 0, 0.6799774169921875, 5.3,19.7) "><g transform="matrix( 1, 0, 0, 1, 0,0) "><use xlink:href="#a"></use></g></g></svg>