<svg id="Layer_1" data-name="Layer 1" xmlns="http://www.w3.org/2000/svg" viewBox="0 0 210.22 1414"><defs><style>.cls-1,.cls-2{fill:none;stroke:#231f20;stroke-miterlimit:10;}.cls-1{stroke-width:5px;}.cls-2{stroke-width:3px;}</style></defs><line class="cls-1" x1="34.47" y1="2.5" x2="166.92" y2="2.5"/><line class="cls-2" x1="70.03" y1="17.5" x2="140.19" y2="17.5"/><line class="cls-2" x1="70.03" y1="32.5" x2="140.19" y2="32.5"/><line class="cls-2" x1="70.03" y1="47.5" x2="140.19" y2="47.5"/><line class="cls-2" x1="70.03" y1="62.5" x2="140.19" y2="62.5"/><line class="cls-1" x1="58.53" y1="77.5" x2="151.69" y2="77.5"/><line class="cls-2" x1="70.03" y1="92.5" x2="140.19" y2="92.5"/><line class="cls-2" x1="70.03" y1="107.5" x2="140.19" y2="107.5"/><line class="cls-2" x1="70.03" y1="122.5" x2="140.19" y2="122.5"/><line class="cls-2" x1="70.03" y1="137.5" x2="140.19" y2="137.5"/><line class="cls-1" y1="152.5" x2="210.22" y2="152.5"/><line class="cls-2" x1="70.03" y1="167.5" x2="140.19" y2="167.5"/><line class="cls-2" x1="70.03" y1="182.5" x2="140.19" y2="182.5"/><line class="cls-2" x1="70.03" y1="197.5" x2="140.19" y2="197.5"/><line class="cls-2" x1="70.03" y1="212.5" x2="140.19" y2="212.5"/><line class="cls-1" x1="58.53" y1="227.5" x2="151.69" y2="227.5"/><line class="cls-2" x1="70.03" y1="242.5" x2="140.19" y2="242.5"/><line class="cls-2" x1="70.03" y1="257.5" x2="140.19" y2="257.5"/><line class="cls-2" x1="70.03" y1="272.5" x2="140.19" y2="272.5"/><line class="cls-2" x1="70.03" y1="287.5" x2="140.19" y2="287.5"/><line class="cls-1" x1="58.53" y1="302.5" x2="151.69" y2="302.5"/><line class="cls-2" x1="70.03" y1="317.5" x2="140.19" y2="317.5"/><line class="cls-2" x1="70.03" y1="332.5" x2="140.19" y2="332.5"/><line class="cls-2" x1="70.03" y1="347.5" x2="140.19" y2="347.5"/><line class="cls-2" x1="70.03" y1="362.5" x2="140.19" y2="362.5"/><line class="cls-1" x1="58.53" y1="377.5" x2="151.69" y2="377.5"/><line class="cls-2" x1="70.03" y1="392.5" x2="140.19" y2="392.5"/><line class="cls-2" x1="70.03" y1="407.5" x2="140.19" y2="407.5"/><line class="cls-2" x1="70.03" y1="422.5" x2="140.19" y2="422.5"/><line class="cls-2" x1="70.03" y1="437.5" x2="140.19" y2="437.5"/><line class="cls-1" x1="58.53" y1="452.5" x2="151.69" y2="452.5"/><line class="cls-2" x1="70.03" y1="467.5" x2="140.19" y2="467.5"/><line class="cls-2" x1="70.03" y1="482.5" x2="140.19" y2="482.5"/><line class="cls-2" x1="70.03" y1="497.5" x2="140.19" y2="497.5"/><line class="cls-2" x1="70.03" y1="512.5" x2="140.19" y2="512.5"/><line class="cls-1" x1="58.53" y1="527.5" x2="151.69" y2="527.5"/><line class="cls-2" x1="70.03" y1="542.5" x2="140.19" y2="542.5"/><line class="cls-2" x1="70.03" y1="557.5" x2="140.19" y2="557.5"/><line class="cls-2" x1="70.03" y1="572.5" x2="140.19" y2="572.5"/><line class="cls-2" x1="70.03" y1="587.5" x2="140.19" y2="587.5"/><line class="cls-1" x1="58.53" y1="602.5" x2="151.69" y2="602.5"/><line class="cls-2" x1="70.03" y1="617.5" x2="140.19" y2="617.5"/><line class="cls-2" x1="70.03" y1="632.5" x2="140.19" y2="632.5"/><line class="cls-2" x1="70.03" y1="647.5" x2="140.19" y2="647.5"/><line class="cls-2" x1="70.03" y1="662.5" x2="140.19" y2="662.5"/><line class="cls-1" x1="58.53" y1="677.5" x2="151.69" y2="677.5"/><line class="cls-2" x1="70.03" y1="692.5" x2="140.19" y2="692.5"/><line class="cls-2" x1="70.03" y1="707.5" x2="140.19" y2="707.5"/><line class="cls-2" x1="70.03" y1="722.5" x2="140.19" y2="722.5"/><line class="cls-2" x1="70.03" y1="737.5" x2="140.19" y2="737.5"/><line class="cls-1" x1="58.53" y1="752.5" x2="151.69" y2="752.5"/><line class="cls-2" x1="70.03" y1="767.5" x2="140.19" y2="767.5"/><line class="cls-2" x1="70.03" y1="782.5" x2="140.19" y2="782.5"/><line class="cls-2" x1="70.03" y1="797.5" x2="140.19" y2="797.5"/><line class="cls-2" x1="70.03" y1="812.5" x2="140.19" y2="812.5"/><line class="cls-1" x1="59.01" y1="827.5" x2="152.16" y2="827.5"/><line class="cls-2" x1="70.5" y1="842.5" x2="140.67" y2="842.5"/><line class="cls-2" x1="70.5" y1="857.5" x2="140.67" y2="857.5"/><line class="cls-2" x1="70.5" y1="872.5" x2="140.67" y2="872.5"/><line class="cls-2" x1="70.5" y1="887.5" x2="140.67" y2="887.5"/><line class="cls-1" x1="59.01" y1="902.5" x2="152.16" y2="902.5"/><line class="cls-2" x1="70.5" y1="917.5" x2="140.67" y2="917.5"/><line class="cls-2" x1="70.5" y1="932.5" x2="140.67" y2="932.5"/><line class="cls-2" x1="70.5" y1="947.5" x2="140.67" y2="947.5"/><line class="cls-2" x1="70.5" y1="962.5" x2="140.67" y2="962.5"/><line class="cls-1" x1="59.01" y1="977.5" x2="152.16" y2="977.5"/><line class="cls-2" x1="70.5" y1="992.5" x2="140.67" y2="992.5"/><line class="cls-2" x1="70.5" y1="1007.5" x2="140.67" y2="1007.5"/><line class="cls-2" x1="70.5" y1="1022.5" x2="140.67" y2="1022.5"/><line class="cls-2" x1="70.5" y1="1037.5" x2="140.67" y2="1037.5"/><line class="cls-1" x1="59.01" y1="1052.5" x2="152.16" y2="1052.5"/><line class="cls-2" x1="70.5" y1="1067.5" x2="140.67" y2="1067.5"/><line class="cls-2" x1="70.5" y1="1082.5" x2="140.67" y2="1082.5"/><line class="cls-2" x1="70.5" y1="1097.5" x2="140.67" y2="1097.5"/><line class="cls-2" x1="70.5" y1="1112.5" x2="140.67" y2="1112.5"/><line class="cls-1" x1="59.01" y1="1127.5" x2="152.16" y2="1127.5"/><line class="cls-2" x1="70.5" y1="1142.5" x2="140.67" y2="1142.5"/><line class="cls-2" x1="70.5" y1="1157.5" x2="140.67" y2="1157.5"/><line class="cls-2" x1="70.5" y1="1172.5" x2="140.67" y2="1172.5"/><line class="cls-2" x1="70.5" y1="1187.5" x2="140.67" y2="1187.5"/><line class="cls-1" x1="59.01" y1="1202.5" x2="152.16" y2="1202.5"/><line class="cls-2" x1="70.5" y1="1217.5" x2="140.67" y2="1217.5"/><line class="cls-2" x1="70.5" y1="1232.5" x2="140.67" y2="1232.5"/><line class="cls-2" x1="70.5" y1="1247.5" x2="140.67" y2="1247.5"/><line class="cls-2" x1="70.5" y1="1262.5" x2="140.67" y2="1262.5"/><line class="cls-1" x1="59.01" y1="1277.5" x2="152.16" y2="1277.5"/><line class="cls-2" x1="70.5" y1="1292.5" x2="140.67" y2="1292.5"/><line class="cls-2" x1="70.5" y1="1307.5" x2="140.67" y2="1307.5"/><line class="cls-2" x1="70.5" y1="1322.5" x2="140.67" y2="1322.5"/><line class="cls-2" x1="70.5" y1="1337.5" x2="140.67" y2="1337.5"/><line class="cls-1" x1="59.01" y1="1352.5" x2="152.16" y2="1352.5"/><line class="cls-2" x1="70.5" y1="1367.5" x2="140.67" y2="1367.5"/><line class="cls-2" x1="70.5" y1="1382.5" x2="140.67" y2="1382.5"/><line class="cls-2" x1="70.5" y1="1397.5" x2="140.67" y2="1397.5"/><line class="cls-2" x1="70.5" y1="1412.5" x2="140.67" y2="1412.5"/></svg>